<svg width="1536" height="577" viewBox="0 0 1536 577" fill="none" xmlns="http://www.w3.org/2000/svg">
<g clip-path="url(#clip0_302_13769)">
<path d="M63.1124 64.1123L127.169 128.169L63.1124 192.225L-0.943848 128.169L63.1124 64.1123Z" stroke="#454545"/>
<path d="M63.1128 75.7588L115.522 128.168L63.1128 180.578L10.7031 128.168L63.1128 75.7588Z" stroke="#454545"/>
<path d="M63.1127 87.4062L103.876 128.169L63.1127 168.932L22.3496 128.169L63.1127 87.4062Z" stroke="#454545"/>
<path d="M63.1126 99.0518L92.229 128.168L63.1126 157.285L33.9961 128.168L63.1126 99.0518Z" stroke="#454545"/>
<path d="M63.113 110.698L80.5828 128.168L63.113 145.638L45.6431 128.168L63.113 110.698Z" stroke="#454545"/>
<path d="M63.1124 122.346L68.9357 128.169L63.1124 133.992L57.2891 128.169L63.1124 122.346Z" stroke="#454545"/>
<path d="M63.1129 192.226L127.169 256.282L63.1129 320.338L-0.943359 256.282L63.1129 192.226Z" stroke="#454545"/>
<path d="M63.1133 203.872L115.523 256.282L63.1133 308.691L10.7036 256.282L63.1133 203.872Z" stroke="#454545"/>
<path d="M63.1127 215.52L103.876 256.283L63.1127 297.046L22.3496 256.283L63.1127 215.52Z" stroke="#454545"/>
<path d="M63.1131 227.165L92.2295 256.282L63.1131 285.398L33.9966 256.282L63.1131 227.165Z" stroke="#454545"/>
<path d="M63.113 238.812L80.5828 256.281L63.113 273.751L45.6431 256.281L63.113 238.812Z" stroke="#454545"/>
<path d="M63.1128 250.459L68.9361 256.282L63.1128 262.106L57.2896 256.282L63.1128 250.459Z" stroke="#454545"/>
<path d="M63.1129 320.458L127.169 384.514L63.1129 448.57L-0.943359 384.514L63.1129 320.458Z" stroke="#454545"/>
<path d="M63.1133 332.104L115.523 384.514L63.1133 436.924L10.7036 384.514L63.1133 332.104Z" stroke="#454545"/>
<path d="M63.1127 343.752L103.876 384.515L63.1127 425.278L22.3496 384.515L63.1127 343.752Z" stroke="#454545"/>
<path d="M63.1131 355.397L92.2295 384.514L63.1131 413.63L33.9966 384.514L63.1131 355.397Z" stroke="#454545"/>
<path d="M63.113 367.044L80.5828 384.514L63.113 401.984L45.6431 384.514L63.113 367.044Z" stroke="#454545"/>
<path d="M63.1128 378.691L68.9361 384.515L63.1128 390.338L57.2896 384.515L63.1128 378.691Z" stroke="#454545"/>
<path d="M63.1129 448.832L127.169 512.888L63.1129 576.945L-0.943359 512.888L63.1129 448.832Z" stroke="#454545"/>
<path d="M63.1133 460.479L115.523 512.888L63.1133 565.298L10.7036 512.888L63.1133 460.479Z" stroke="#454545"/>
<path d="M63.1127 472.126L103.876 512.889L63.1127 553.652L22.3496 512.889L63.1127 472.126Z" stroke="#454545"/>
<path d="M63.1131 483.771L92.2295 512.888L63.1131 542.004L33.9966 512.888L63.1131 483.771Z" stroke="#454545"/>
<path d="M63.113 495.418L80.5828 512.888L63.113 530.358L45.6431 512.888L63.113 495.418Z" stroke="#454545"/>
<path d="M63.1128 507.065L68.9361 512.889L63.1128 518.712L57.2896 512.889L63.1128 507.065Z" stroke="#454545"/>
<path d="M63.1129 -64L127.169 0.0562356L63.1129 64.1125L-0.943359 0.0562356L63.1129 -64Z" stroke="#454545"/>
<path d="M63.1133 -52.3535L115.523 0.0561392L63.1133 52.4658L10.7036 0.0561392L63.1133 -52.3535Z" stroke="#454545"/>
<path d="M63.1132 -40.7061L103.876 0.0570076L63.1132 40.8201L22.3501 0.0570076L63.1132 -40.7061Z" stroke="#454545"/>
<path d="M63.1135 -29.0605L92.23 0.0559257L63.1135 29.1724L33.9971 0.0559257L63.1135 -29.0605Z" stroke="#454545"/>
<path d="M63.113 -17.4141L80.5828 0.055822L63.113 17.5257L45.6431 0.055822L63.113 -17.4141Z" stroke="#454545"/>
<path d="M63.1133 -5.7666L68.9366 0.0566933L63.1133 5.87999L57.29 0.0566933L63.1133 -5.7666Z" stroke="#454545"/>
<path d="M191.225 64.1123L255.281 128.169L191.225 192.225L127.168 128.169L191.225 64.1123Z" stroke="#454545"/>
<path d="M191.225 75.7588L243.635 128.168L191.225 180.578L138.815 128.168L191.225 75.7588Z" stroke="#454545"/>
<path d="M191.225 87.4062L231.988 128.169L191.225 168.932L150.462 128.169L191.225 87.4062Z" stroke="#454545"/>
<path d="M191.225 99.0518L220.341 128.168L191.225 157.285L162.108 128.168L191.225 99.0518Z" stroke="#454545"/>
<path d="M191.225 110.698L208.695 128.168L191.225 145.638L173.755 128.168L191.225 110.698Z" stroke="#454545"/>
<path d="M191.225 122.346L197.048 128.169L191.225 133.992L185.401 128.169L191.225 122.346Z" stroke="#454545"/>
<path d="M191.225 192.226L255.281 256.282L191.225 320.338L127.169 256.282L191.225 192.226Z" stroke="#454545"/>
<path d="M191.226 203.872L243.635 256.282L191.226 308.691L138.816 256.282L191.226 203.872Z" stroke="#454545"/>
<path d="M191.225 215.52L231.988 256.283L191.225 297.046L150.462 256.283L191.225 215.52Z" stroke="#454545"/>
<path d="M191.225 227.165L220.342 256.282L191.225 285.398L162.109 256.282L191.225 227.165Z" stroke="#454545"/>
<path d="M191.225 238.812L208.695 256.281L191.225 273.751L173.755 256.281L191.225 238.812Z" stroke="#454545"/>
<path d="M191.225 250.459L197.048 256.282L191.225 262.106L185.402 256.282L191.225 250.459Z" stroke="#454545"/>
<path d="M191.225 320.458L255.281 384.514L191.225 448.57L127.169 384.514L191.225 320.458Z" stroke="#454545"/>
<path d="M191.226 332.104L243.635 384.514L191.226 436.924L138.816 384.514L191.226 332.104Z" stroke="#454545"/>
<path d="M191.225 343.752L231.988 384.515L191.225 425.278L150.462 384.515L191.225 343.752Z" stroke="#454545"/>
<path d="M191.225 355.397L220.342 384.514L191.225 413.63L162.109 384.514L191.225 355.397Z" stroke="#454545"/>
<path d="M191.225 367.044L208.695 384.514L191.225 401.984L173.755 384.514L191.225 367.044Z" stroke="#454545"/>
<path d="M191.225 378.691L197.048 384.515L191.225 390.338L185.402 384.515L191.225 378.691Z" stroke="#454545"/>
<path d="M191.225 448.832L255.281 512.888L191.225 576.945L127.169 512.888L191.225 448.832Z" stroke="#454545"/>
<path d="M191.226 460.479L243.635 512.888L191.226 565.298L138.816 512.888L191.226 460.479Z" stroke="#454545"/>
<path d="M191.225 472.126L231.988 512.889L191.225 553.652L150.462 512.889L191.225 472.126Z" stroke="#454545"/>
<path d="M191.225 483.771L220.342 512.888L191.225 542.004L162.109 512.888L191.225 483.771Z" stroke="#454545"/>
<path d="M191.225 495.418L208.695 512.888L191.225 530.358L173.755 512.888L191.225 495.418Z" stroke="#454545"/>
<path d="M191.225 507.065L197.048 512.889L191.225 518.712L185.402 512.889L191.225 507.065Z" stroke="#454545"/>
<path d="M191.225 -64L255.281 0.0562356L191.225 64.1125L127.169 0.0562356L191.225 -64Z" stroke="#454545"/>
<path d="M191.226 -52.3535L243.635 0.0561392L191.226 52.4658L138.816 0.0561392L191.226 -52.3535Z" stroke="#454545"/>
<path d="M191.225 -40.7061L231.988 0.0570076L191.225 40.8201L150.462 0.0570076L191.225 -40.7061Z" stroke="#454545"/>
<path d="M191.225 -29.0605L220.342 0.0559257L191.225 29.1724L162.109 0.0559257L191.225 -29.0605Z" stroke="#454545"/>
<path d="M191.225 -17.4141L208.695 0.055822L191.225 17.5257L173.755 0.055822L191.225 -17.4141Z" stroke="#454545"/>
<path d="M191.225 -5.7666L197.048 0.0566933L191.225 5.87999L185.402 0.0566933L191.225 -5.7666Z" stroke="#454545"/>
<path d="M127.169 0.0576172L191.225 64.1139L127.169 128.17L63.1128 64.1139L127.169 0.0576172Z" stroke="#454545"/>
<path d="M127.169 11.7041L179.579 64.1138L127.169 116.523L74.7593 64.1138L127.169 11.7041Z" stroke="#454545"/>
<path d="M127.169 23.3506L167.932 64.1136L127.169 104.877L86.4058 64.1136L127.169 23.3506Z" stroke="#454545"/>
<path d="M127.169 34.9971L156.286 64.1135L127.169 93.23L98.0527 64.1135L127.169 34.9971Z" stroke="#454545"/>
<path d="M127.169 46.6436L144.639 64.1134L127.169 81.5833L109.699 64.1134L127.169 46.6436Z" stroke="#454545"/>
<path d="M127.169 58.291L132.992 64.1143L127.169 69.9376L121.346 64.1143L127.169 58.291Z" stroke="#454545"/>
<path d="M127.169 128.169L191.225 192.225L127.169 256.281L63.1128 192.225L127.169 128.169Z" stroke="#454545"/>
<path d="M127.169 139.815L179.579 192.225L127.169 244.635L74.7598 192.225L127.169 139.815Z" stroke="#454545"/>
<path d="M127.169 151.463L167.932 192.226L127.169 232.989L86.4062 192.226L127.169 151.463Z" stroke="#454545"/>
<path d="M127.169 163.108L156.286 192.225L127.169 221.341L98.0527 192.225L127.169 163.108Z" stroke="#454545"/>
<path d="M127.169 174.755L144.639 192.225L127.169 209.695L109.699 192.225L127.169 174.755Z" stroke="#454545"/>
<path d="M127.169 186.402L132.993 192.226L127.169 198.049L121.346 192.226L127.169 186.402Z" stroke="#454545"/>
<path d="M127.169 256.281L191.225 320.337L127.169 384.394L63.1128 320.337L127.169 256.281Z" stroke="#454545"/>
<path d="M127.169 267.928L179.579 320.337L127.169 372.747L74.7593 320.337L127.169 267.928Z" stroke="#454545"/>
<path d="M127.169 279.573L167.932 320.336L127.169 361.099L86.4062 320.336L127.169 279.573Z" stroke="#454545"/>
<path d="M127.169 291.221L156.286 320.337L127.169 349.454L98.0527 320.337L127.169 291.221Z" stroke="#454545"/>
<path d="M127.169 302.867L144.639 320.337L127.169 337.807L109.699 320.337L127.169 302.867Z" stroke="#454545"/>
<path d="M127.169 314.514L132.993 320.337L127.169 326.16L121.346 320.337L127.169 314.514Z" stroke="#454545"/>
<path d="M127.169 384.513L191.225 448.569L127.169 512.625L63.1128 448.569L127.169 384.513Z" stroke="#454545"/>
<path d="M127.169 396.159L179.579 448.569L127.169 500.978L74.7593 448.569L127.169 396.159Z" stroke="#454545"/>
<path d="M127.169 407.806L167.932 448.569L127.169 489.332L86.4058 448.569L127.169 407.806Z" stroke="#454545"/>
<path d="M127.169 419.452L156.286 448.569L127.169 477.685L98.0527 448.569L127.169 419.452Z" stroke="#454545"/>
<path d="M127.169 431.099L144.639 448.569L127.169 466.038L109.699 448.569L127.169 431.099Z" stroke="#454545"/>
<path d="M127.169 442.746L132.992 448.569L127.169 454.393L121.346 448.569L127.169 442.746Z" stroke="#454545"/>
<path d="M127.169 512.888L191.225 576.944L127.169 641L63.1128 576.944L127.169 512.888Z" stroke="#454545"/>
<path d="M127.169 524.534L179.579 576.944L127.169 629.353L74.7593 576.944L127.169 524.534Z" stroke="#454545"/>
<path d="M127.169 536.18L167.932 576.943L127.169 617.706L86.4062 576.943L127.169 536.18Z" stroke="#454545"/>
<path d="M127.169 547.827L156.286 576.944L127.169 606.06L98.0527 576.944L127.169 547.827Z" stroke="#454545"/>
<path d="M127.169 559.474L144.639 576.944L127.169 594.413L109.699 576.944L127.169 559.474Z" stroke="#454545"/>
<path d="M127.169 571.12L132.993 576.943L127.169 582.767L121.346 576.943L127.169 571.12Z" stroke="#454545"/>
<path d="M-0.943764 256.281L63.1125 320.337L-0.943764 384.394L-65 320.337L-0.943764 256.281Z" stroke="#454545"/>
<path d="M-0.943861 267.928L51.4658 320.337L-0.943861 372.747L-53.3535 320.337L-0.943861 267.928Z" stroke="#454545"/>
<path d="M-0.943969 279.573L39.8191 320.336L-0.943969 361.099L-41.707 320.336L-0.943969 279.573Z" stroke="#454545"/>
<path d="M-0.943586 291.221L28.1729 320.337L-0.943586 349.454L-30.0601 320.337L-0.943586 291.221Z" stroke="#454545"/>
<path d="M-0.944178 302.867L16.5257 320.337L-0.944178 337.807L-18.4141 320.337L-0.944178 302.867Z" stroke="#454545"/>
<path d="M-0.943795 314.514L4.8795 320.337L-0.943795 326.16L-6.76709 320.337L-0.943795 314.514Z" stroke="#454545"/>
<path d="M-0.943764 384.513L63.1125 448.569L-0.943764 512.625L-65 448.569L-0.943764 384.513Z" stroke="#454545"/>
<path d="M-0.943372 396.159L51.4663 448.569L-0.943372 500.978L-53.353 448.569L-0.943372 396.159Z" stroke="#454545"/>
<path d="M-0.943969 407.806L39.8191 448.569L-0.943969 489.332L-41.707 448.569L-0.943969 407.806Z" stroke="#454545"/>
<path d="M-0.943586 419.452L28.1729 448.569L-0.943586 477.685L-30.0601 448.569L-0.943586 419.452Z" stroke="#454545"/>
<path d="M-0.94369 431.099L16.5262 448.569L-0.94369 466.038L-18.4136 448.569L-0.94369 431.099Z" stroke="#454545"/>
<path d="M-0.943795 442.746L4.8795 448.569L-0.943795 454.393L-6.76709 448.569L-0.943795 442.746Z" stroke="#454545"/>
<path d="M-0.943764 512.888L63.1125 576.944L-0.943764 641L-65 576.944L-0.943764 512.888Z" stroke="#454545"/>
<path d="M-0.943861 524.534L51.4658 576.944L-0.943861 629.353L-53.3535 576.944L-0.943861 524.534Z" stroke="#454545"/>
<path d="M-0.943969 536.18L39.8191 576.943L-0.943969 617.706L-41.707 576.943L-0.943969 536.18Z" stroke="#454545"/>
<path d="M-0.943586 547.827L28.1729 576.944L-0.943586 606.06L-30.0601 576.944L-0.943586 547.827Z" stroke="#454545"/>
<path d="M-0.944178 559.474L16.5257 576.944L-0.944178 594.413L-18.4141 576.944L-0.944178 559.474Z" stroke="#454545"/>
<path d="M-0.943795 571.12L4.8795 576.943L-0.943795 582.767L-6.76709 576.943L-0.943795 571.12Z" stroke="#454545"/>
<path d="M-0.943764 128.146L63.1125 192.202L-0.943764 256.258L-65 192.202L-0.943764 128.146Z" stroke="#454545"/>
<path d="M-0.943861 139.792L51.4658 192.202L-0.943861 244.611L-53.3535 192.202L-0.943861 139.792Z" stroke="#454545"/>
<path d="M-0.943969 151.438L39.8191 192.202L-0.943969 232.965L-41.707 192.202L-0.943969 151.438Z" stroke="#454545"/>
<path d="M-0.943586 163.085L28.1729 192.201L-0.943586 221.318L-30.0601 192.201L-0.943586 163.085Z" stroke="#454545"/>
<path d="M-0.944178 174.731L16.5257 192.201L-0.944178 209.671L-18.4141 192.201L-0.944178 174.731Z" stroke="#454545"/>
<path d="M-0.943795 186.379L4.8795 192.202L-0.943795 198.025L-6.76709 192.202L-0.943795 186.379Z" stroke="#454545"/>
<path d="M-0.943764 -0.0625L63.1125 63.9937L-0.943764 128.05L-65 63.9937L-0.943764 -0.0625Z" stroke="#454545"/>
<path d="M-0.943861 11.584L51.4658 63.9936L-0.943861 116.403L-53.3535 63.9936L-0.943861 11.584Z" stroke="#454545"/>
<path d="M-0.943969 23.2305L39.8191 63.9935L-0.943969 104.757L-41.707 63.9935L-0.943969 23.2305Z" stroke="#454545"/>
<path d="M-0.943586 34.877L28.1729 63.9934L-0.943586 93.1099L-30.0601 63.9934L-0.943586 34.877Z" stroke="#454545"/>
<path d="M-0.944178 46.5234L16.5257 63.9933L-0.944178 81.4632L-18.4141 63.9933L-0.944178 46.5234Z" stroke="#454545"/>
<path d="M-0.943795 58.1709L4.8795 63.9942L-0.943795 69.8175L-6.76709 63.9942L-0.943795 58.1709Z" stroke="#454545"/>
<path d="M255.281 128.169L319.338 192.225L255.281 256.281L191.225 192.225L255.281 128.169Z" stroke="#454545"/>
<path d="M255.281 139.815L307.691 192.225L255.281 244.635L202.872 192.225L255.281 139.815Z" stroke="#454545"/>
<path d="M255.281 151.463L296.044 192.226L255.281 232.989L214.518 192.226L255.281 151.463Z" stroke="#454545"/>
<path d="M255.282 163.108L284.398 192.225L255.282 221.341L226.165 192.225L255.282 163.108Z" stroke="#454545"/>
<path d="M255.281 174.755L272.751 192.225L255.281 209.695L237.811 192.225L255.281 174.755Z" stroke="#454545"/>
<path d="M255.281 186.402L261.105 192.226L255.281 198.049L249.458 192.226L255.281 186.402Z" stroke="#454545"/>
<path d="M255.281 256.281L319.338 320.337L255.281 384.394L191.225 320.337L255.281 256.281Z" stroke="#454545"/>
<path d="M255.281 267.928L307.69 320.337L255.281 372.747L202.871 320.337L255.281 267.928Z" stroke="#454545"/>
<path d="M255.281 279.573L296.044 320.336L255.281 361.099L214.518 320.336L255.281 279.573Z" stroke="#454545"/>
<path d="M255.282 291.221L284.398 320.337L255.282 349.454L226.165 320.337L255.282 291.221Z" stroke="#454545"/>
<path d="M255.281 302.867L272.751 320.337L255.281 337.807L237.811 320.337L255.281 302.867Z" stroke="#454545"/>
<path d="M255.281 314.514L261.105 320.337L255.281 326.16L249.458 320.337L255.281 314.514Z" stroke="#454545"/>
<path d="M255.281 384.513L319.338 448.569L255.281 512.625L191.225 448.569L255.281 384.513Z" stroke="#454545"/>
<path d="M255.281 396.159L307.691 448.569L255.281 500.978L202.872 448.569L255.281 396.159Z" stroke="#454545"/>
<path d="M255.281 407.806L296.044 448.569L255.281 489.332L214.518 448.569L255.281 407.806Z" stroke="#454545"/>
<path d="M255.282 419.452L284.398 448.569L255.282 477.685L226.165 448.569L255.282 419.452Z" stroke="#454545"/>
<path d="M255.281 431.099L272.751 448.569L255.281 466.038L237.812 448.569L255.281 431.099Z" stroke="#454545"/>
<path d="M255.281 442.746L261.105 448.569L255.281 454.393L249.458 448.569L255.281 442.746Z" stroke="#454545"/>
<path d="M255.281 512.888L319.338 576.944L255.281 641L191.225 576.944L255.281 512.888Z" stroke="#454545"/>
<path d="M255.281 524.534L307.69 576.944L255.281 629.353L202.871 576.944L255.281 524.534Z" stroke="#454545"/>
<path d="M255.281 536.18L296.044 576.943L255.281 617.706L214.518 576.943L255.281 536.18Z" stroke="#454545"/>
<path d="M255.282 547.827L284.398 576.944L255.282 606.06L226.165 576.944L255.282 547.827Z" stroke="#454545"/>
<path d="M255.281 559.474L272.751 576.944L255.281 594.413L237.811 576.944L255.281 559.474Z" stroke="#454545"/>
<path d="M255.281 571.12L261.105 576.943L255.281 582.767L249.458 576.943L255.281 571.12Z" stroke="#454545"/>
<path d="M383.394 128.169L447.45 192.225L383.394 256.281L319.337 192.225L383.394 128.169Z" stroke="#454545"/>
<path d="M383.394 139.815L435.804 192.225L383.394 244.635L330.984 192.225L383.394 139.815Z" stroke="#454545"/>
<path d="M383.393 151.463L424.156 192.226L383.393 232.989L342.63 192.226L383.393 151.463Z" stroke="#454545"/>
<path d="M383.394 163.108L412.51 192.225L383.394 221.341L354.277 192.225L383.394 163.108Z" stroke="#454545"/>
<path d="M383.394 174.755L400.864 192.225L383.394 209.695L365.924 192.225L383.394 174.755Z" stroke="#454545"/>
<path d="M383.394 186.402L389.217 192.226L383.394 198.049L377.57 192.226L383.394 186.402Z" stroke="#454545"/>
<path d="M383.394 256.281L447.45 320.337L383.394 384.394L319.337 320.337L383.394 256.281Z" stroke="#454545"/>
<path d="M383.394 267.928L435.803 320.337L383.394 372.747L330.984 320.337L383.394 267.928Z" stroke="#454545"/>
<path d="M383.393 279.573L424.156 320.336L383.393 361.099L342.63 320.336L383.393 279.573Z" stroke="#454545"/>
<path d="M383.393 291.221L412.51 320.337L383.393 349.454L354.277 320.337L383.393 291.221Z" stroke="#454545"/>
<path d="M383.394 302.867L400.864 320.337L383.394 337.807L365.924 320.337L383.394 302.867Z" stroke="#454545"/>
<path d="M383.394 314.514L389.217 320.337L383.394 326.16L377.57 320.337L383.394 314.514Z" stroke="#454545"/>
<path d="M383.394 384.513L447.45 448.569L383.394 512.625L319.337 448.569L383.394 384.513Z" stroke="#454545"/>
<path d="M383.394 396.159L435.803 448.569L383.394 500.978L330.984 448.569L383.394 396.159Z" stroke="#454545"/>
<path d="M383.393 407.806L424.156 448.569L383.393 489.332L342.63 448.569L383.393 407.806Z" stroke="#454545"/>
<path d="M383.393 419.452L412.51 448.569L383.393 477.685L354.277 448.569L383.393 419.452Z" stroke="#454545"/>
<path d="M383.394 431.099L400.864 448.569L383.394 466.038L365.924 448.569L383.394 431.099Z" stroke="#454545"/>
<path d="M383.394 442.746L389.217 448.569L383.394 454.393L377.57 448.569L383.394 442.746Z" stroke="#454545"/>
<path d="M383.394 512.888L447.45 576.944L383.394 641L319.337 576.944L383.394 512.888Z" stroke="#454545"/>
<path d="M383.394 524.534L435.803 576.944L383.394 629.353L330.984 576.944L383.394 524.534Z" stroke="#454545"/>
<path d="M383.393 536.18L424.156 576.943L383.393 617.706L342.63 576.943L383.393 536.18Z" stroke="#454545"/>
<path d="M383.393 547.827L412.51 576.944L383.393 606.06L354.277 576.944L383.393 547.827Z" stroke="#454545"/>
<path d="M383.394 559.474L400.864 576.944L383.394 594.413L365.924 576.944L383.394 559.474Z" stroke="#454545"/>
<path d="M383.394 571.12L389.217 576.943L383.394 582.767L377.57 576.943L383.394 571.12Z" stroke="#454545"/>
<path d="M511.506 128.169L575.563 192.225L511.506 256.281L447.45 192.225L511.506 128.169Z" stroke="#454545"/>
<path d="M511.507 139.815L563.916 192.225L511.507 244.635L459.097 192.225L511.507 139.815Z" stroke="#454545"/>
<path d="M511.507 151.463L552.27 192.226L511.507 232.989L470.744 192.226L511.507 151.463Z" stroke="#454545"/>
<path d="M511.507 163.108L540.623 192.225L511.507 221.341L482.39 192.225L511.507 163.108Z" stroke="#454545"/>
<path d="M511.507 174.755L528.976 192.225L511.507 209.695L494.037 192.225L511.507 174.755Z" stroke="#454545"/>
<path d="M511.507 186.402L517.33 192.226L511.507 198.049L505.684 192.226L511.507 186.402Z" stroke="#454545"/>
<path d="M511.506 256.281L575.563 320.337L511.506 384.394L447.45 320.337L511.506 256.281Z" stroke="#454545"/>
<path d="M511.506 267.928L563.916 320.337L511.506 372.747L459.097 320.337L511.506 267.928Z" stroke="#454545"/>
<path d="M511.507 279.573L552.27 320.336L511.507 361.099L470.744 320.336L511.507 279.573Z" stroke="#454545"/>
<path d="M511.506 291.221L540.623 320.337L511.506 349.454L482.39 320.337L511.506 291.221Z" stroke="#454545"/>
<path d="M511.507 302.867L528.976 320.337L511.507 337.807L494.037 320.337L511.507 302.867Z" stroke="#454545"/>
<path d="M511.507 314.514L517.33 320.337L511.507 326.16L505.684 320.337L511.507 314.514Z" stroke="#454545"/>
<path d="M511.506 384.513L575.563 448.569L511.506 512.625L447.45 448.569L511.506 384.513Z" stroke="#454545"/>
<path d="M511.506 396.159L563.916 448.569L511.506 500.978L459.097 448.569L511.506 396.159Z" stroke="#454545"/>
<path d="M511.506 407.806L552.269 448.569L511.506 489.332L470.743 448.569L511.506 407.806Z" stroke="#454545"/>
<path d="M511.506 419.452L540.623 448.569L511.506 477.685L482.39 448.569L511.506 419.452Z" stroke="#454545"/>
<path d="M511.507 431.099L528.976 448.569L511.507 466.038L494.037 448.569L511.507 431.099Z" stroke="#454545"/>
<path d="M511.506 442.746L517.33 448.569L511.506 454.393L505.683 448.569L511.506 442.746Z" stroke="#454545"/>
<path d="M511.506 512.888L575.563 576.944L511.506 641L447.45 576.944L511.506 512.888Z" stroke="#454545"/>
<path d="M511.506 524.534L563.916 576.944L511.506 629.353L459.097 576.944L511.506 524.534Z" stroke="#454545"/>
<path d="M511.507 536.18L552.27 576.943L511.507 617.706L470.744 576.943L511.507 536.18Z" stroke="#454545"/>
<path d="M511.506 547.827L540.623 576.944L511.506 606.06L482.39 576.944L511.506 547.827Z" stroke="#454545"/>
<path d="M511.507 559.474L528.976 576.944L511.507 594.413L494.037 576.944L511.507 559.474Z" stroke="#454545"/>
<path d="M511.507 571.12L517.33 576.943L511.507 582.767L505.684 576.943L511.507 571.12Z" stroke="#454545"/>
<path d="M639.618 128.169L703.674 192.225L639.618 256.281L575.562 192.225L639.618 128.169Z" stroke="#454545"/>
<path d="M639.618 139.815L692.028 192.225L639.618 244.635L587.208 192.225L639.618 139.815Z" stroke="#454545"/>
<path d="M639.618 151.463L680.381 192.226L639.618 232.989L598.855 192.226L639.618 151.463Z" stroke="#454545"/>
<path d="M639.618 163.108L668.735 192.225L639.618 221.341L610.502 192.225L639.618 163.108Z" stroke="#454545"/>
<path d="M639.618 174.755L657.088 192.225L639.618 209.695L622.148 192.225L639.618 174.755Z" stroke="#454545"/>
<path d="M639.618 186.402L645.442 192.226L639.618 198.049L633.795 192.226L639.618 186.402Z" stroke="#454545"/>
<path d="M639.619 256.281L703.675 320.337L639.619 384.394L575.562 320.337L639.619 256.281Z" stroke="#454545"/>
<path d="M639.618 267.928L692.028 320.337L639.618 372.747L587.208 320.337L639.618 267.928Z" stroke="#454545"/>
<path d="M639.619 279.573L680.382 320.336L639.619 361.099L598.855 320.336L639.619 279.573Z" stroke="#454545"/>
<path d="M639.618 291.221L668.735 320.337L639.618 349.454L610.502 320.337L639.618 291.221Z" stroke="#454545"/>
<path d="M639.619 302.867L657.089 320.337L639.619 337.807L622.149 320.337L639.619 302.867Z" stroke="#454545"/>
<path d="M639.618 314.514L645.442 320.337L639.618 326.16L633.795 320.337L639.618 314.514Z" stroke="#454545"/>
<path d="M639.619 384.513L703.675 448.569L639.619 512.625L575.562 448.569L639.619 384.513Z" stroke="#454545"/>
<path d="M639.619 396.159L692.028 448.569L639.619 500.978L587.209 448.569L639.619 396.159Z" stroke="#454545"/>
<path d="M639.619 407.806L680.382 448.569L639.619 489.332L598.855 448.569L639.619 407.806Z" stroke="#454545"/>
<path d="M639.618 419.452L668.735 448.569L639.618 477.685L610.502 448.569L639.618 419.452Z" stroke="#454545"/>
<path d="M639.619 431.099L657.089 448.569L639.619 466.038L622.149 448.569L639.619 431.099Z" stroke="#454545"/>
<path d="M639.618 442.746L645.442 448.569L639.618 454.393L633.795 448.569L639.618 442.746Z" stroke="#454545"/>
<path d="M639.619 512.888L703.675 576.944L639.619 641L575.562 576.944L639.619 512.888Z" stroke="#454545"/>
<path d="M639.618 524.534L692.028 576.944L639.618 629.353L587.208 576.944L639.618 524.534Z" stroke="#454545"/>
<path d="M639.619 536.18L680.382 576.943L639.619 617.706L598.855 576.943L639.619 536.18Z" stroke="#454545"/>
<path d="M639.618 547.827L668.735 576.944L639.618 606.06L610.502 576.944L639.618 547.827Z" stroke="#454545"/>
<path d="M639.619 559.474L657.089 576.944L639.619 594.413L622.149 576.944L639.619 559.474Z" stroke="#454545"/>
<path d="M639.618 571.12L645.442 576.943L639.618 582.767L633.795 576.943L639.618 571.12Z" stroke="#454545"/>
<path d="M767.732 128.169L831.788 192.225L767.732 256.281L703.675 192.225L767.732 128.169Z" stroke="#454545"/>
<path d="M767.732 139.815L820.142 192.225L767.732 244.635L715.322 192.225L767.732 139.815Z" stroke="#454545"/>
<path d="M767.732 151.463L808.495 192.226L767.732 232.989L726.969 192.226L767.732 151.463Z" stroke="#454545"/>
<path d="M767.732 163.108L796.848 192.225L767.732 221.341L738.615 192.225L767.732 163.108Z" stroke="#454545"/>
<path d="M767.732 174.755L785.201 192.225L767.732 209.695L750.262 192.225L767.732 174.755Z" stroke="#454545"/>
<path d="M767.732 186.402L773.555 192.226L767.732 198.049L761.909 192.226L767.732 186.402Z" stroke="#454545"/>
<path d="M767.732 256.281L831.788 320.337L767.732 384.394L703.675 320.337L767.732 256.281Z" stroke="#454545"/>
<path d="M767.731 267.928L820.141 320.337L767.731 372.747L715.322 320.337L767.731 267.928Z" stroke="#454545"/>
<path d="M767.732 279.573L808.495 320.336L767.732 361.099L726.969 320.336L767.732 279.573Z" stroke="#454545"/>
<path d="M767.731 291.221L796.848 320.337L767.731 349.454L738.615 320.337L767.731 291.221Z" stroke="#454545"/>
<path d="M767.732 302.867L785.201 320.337L767.732 337.807L750.262 320.337L767.732 302.867Z" stroke="#454545"/>
<path d="M767.731 314.514L773.555 320.337L767.731 326.16L761.908 320.337L767.731 314.514Z" stroke="#454545"/>
<path d="M767.732 384.513L831.788 448.569L767.732 512.625L703.675 448.569L767.732 384.513Z" stroke="#454545"/>
<path d="M767.731 396.159L820.141 448.569L767.731 500.978L715.322 448.569L767.731 396.159Z" stroke="#454545"/>
<path d="M767.731 407.806L808.494 448.569L767.731 489.332L726.968 448.569L767.731 407.806Z" stroke="#454545"/>
<path d="M767.731 419.452L796.848 448.569L767.731 477.685L738.615 448.569L767.731 419.452Z" stroke="#454545"/>
<path d="M767.732 431.099L785.201 448.569L767.732 466.038L750.262 448.569L767.732 431.099Z" stroke="#454545"/>
<path d="M767.731 442.746L773.554 448.569L767.731 454.393L761.908 448.569L767.731 442.746Z" stroke="#454545"/>
<path d="M767.732 512.888L831.788 576.944L767.732 641L703.675 576.944L767.732 512.888Z" stroke="#454545"/>
<path d="M767.731 524.534L820.141 576.944L767.731 629.353L715.322 576.944L767.731 524.534Z" stroke="#454545"/>
<path d="M767.732 536.18L808.495 576.943L767.732 617.706L726.969 576.943L767.732 536.18Z" stroke="#454545"/>
<path d="M767.731 547.827L796.848 576.944L767.731 606.06L738.615 576.944L767.731 547.827Z" stroke="#454545"/>
<path d="M767.732 559.474L785.201 576.944L767.732 594.413L750.262 576.944L767.732 559.474Z" stroke="#454545"/>
<path d="M767.731 571.12L773.555 576.943L767.731 582.767L761.908 576.943L767.731 571.12Z" stroke="#454545"/>
<path d="M895.843 128.169L959.9 192.225L895.843 256.281L831.787 192.225L895.843 128.169Z" stroke="#454545"/>
<path d="M895.843 139.815L948.253 192.225L895.843 244.635L843.434 192.225L895.843 139.815Z" stroke="#454545"/>
<path d="M895.843 151.463L936.606 192.226L895.843 232.989L855.08 192.226L895.843 151.463Z" stroke="#454545"/>
<path d="M895.844 163.108L924.96 192.225L895.844 221.341L866.727 192.225L895.844 163.108Z" stroke="#454545"/>
<path d="M895.843 174.755L913.313 192.225L895.843 209.695L878.373 192.225L895.843 174.755Z" stroke="#454545"/>
<path d="M895.843 186.402L901.667 192.226L895.843 198.049L890.02 192.226L895.843 186.402Z" stroke="#454545"/>
<path d="M1023.96 128.169L1088.01 192.225L1023.96 256.281L959.9 192.225L1023.96 128.169Z" stroke="#454545"/>
<path d="M1023.96 139.815L1076.37 192.225L1023.96 244.635L971.547 192.225L1023.96 139.815Z" stroke="#454545"/>
<path d="M1023.96 151.463L1064.72 192.226L1023.96 232.989L983.193 192.226L1023.96 151.463Z" stroke="#454545"/>
<path d="M1023.96 163.108L1053.07 192.225L1023.96 221.341L994.84 192.225L1023.96 163.108Z" stroke="#454545"/>
<path d="M1023.96 174.755L1041.43 192.225L1023.96 209.695L1006.49 192.225L1023.96 174.755Z" stroke="#454545"/>
<path d="M1023.96 186.402L1029.78 192.226L1023.96 198.049L1018.13 192.226L1023.96 186.402Z" stroke="#454545"/>
<path d="M1152.07 128.169L1216.13 192.225L1152.07 256.281L1088.01 192.225L1152.07 128.169Z" stroke="#454545"/>
<path d="M1152.07 139.815L1204.48 192.225L1152.07 244.635L1099.66 192.225L1152.07 139.815Z" stroke="#454545"/>
<path d="M1152.07 151.463L1192.83 192.226L1152.07 232.989L1111.31 192.226L1152.07 151.463Z" stroke="#454545"/>
<path d="M1152.07 163.108L1181.19 192.225L1152.07 221.341L1122.95 192.225L1152.07 163.108Z" stroke="#454545"/>
<path d="M1152.07 174.755L1169.54 192.225L1152.07 209.695L1134.6 192.225L1152.07 174.755Z" stroke="#454545"/>
<path d="M1152.07 186.402L1157.89 192.226L1152.07 198.049L1146.25 192.226L1152.07 186.402Z" stroke="#454545"/>
<path d="M1280.13 128.169L1344.19 192.225L1280.13 256.281L1216.08 192.225L1280.13 128.169Z" stroke="#454545"/>
<path d="M1280.13 139.815L1332.54 192.225L1280.13 244.635L1227.72 192.225L1280.13 139.815Z" stroke="#454545"/>
<path d="M1280.13 151.463L1320.9 192.226L1280.13 232.989L1239.37 192.226L1280.13 151.463Z" stroke="#454545"/>
<path d="M1280.13 163.108L1309.25 192.225L1280.13 221.341L1251.02 192.225L1280.13 163.108Z" stroke="#454545"/>
<path d="M1280.13 174.755L1297.6 192.225L1280.13 209.695L1262.66 192.225L1280.13 174.755Z" stroke="#454545"/>
<path d="M1280.13 186.402L1285.96 192.226L1280.13 198.049L1274.31 192.226L1280.13 186.402Z" stroke="#454545"/>
<path d="M1408.25 128.169L1472.3 192.225L1408.25 256.281L1344.19 192.225L1408.25 128.169Z" stroke="#454545"/>
<path d="M1408.25 139.815L1460.66 192.225L1408.25 244.635L1355.84 192.225L1408.25 139.815Z" stroke="#454545"/>
<path d="M1408.25 151.463L1449.01 192.226L1408.25 232.989L1367.48 192.226L1408.25 151.463Z" stroke="#454545"/>
<path d="M1408.25 163.108L1437.36 192.225L1408.25 221.341L1379.13 192.225L1408.25 163.108Z" stroke="#454545"/>
<path d="M1408.25 174.755L1425.72 192.225L1408.25 209.695L1390.78 192.225L1408.25 174.755Z" stroke="#454545"/>
<path d="M1408.25 186.402L1414.07 192.226L1408.25 198.049L1402.42 192.226L1408.25 186.402Z" stroke="#454545"/>
<path d="M1536.45 128.169L1600.51 192.225L1536.45 256.281L1472.4 192.225L1536.45 128.169Z" stroke="#454545"/>
<path d="M1536.45 139.815L1588.86 192.225L1536.45 244.635L1484.04 192.225L1536.45 139.815Z" stroke="#454545"/>
<path d="M1536.45 151.463L1577.22 192.226L1536.45 232.989L1495.69 192.226L1536.45 151.463Z" stroke="#454545"/>
<path d="M1536.45 163.108L1565.57 192.225L1536.45 221.341L1507.34 192.225L1536.45 163.108Z" stroke="#454545"/>
<path d="M1536.45 174.755L1553.92 192.225L1536.45 209.695L1518.98 192.225L1536.45 174.755Z" stroke="#454545"/>
<path d="M1536.45 186.402L1542.28 192.226L1536.45 198.049L1530.63 192.226L1536.45 186.402Z" stroke="#454545"/>
<path d="M895.844 256.281L959.9 320.337L895.844 384.394L831.788 320.337L895.844 256.281Z" stroke="#454545"/>
<path d="M895.843 267.928L948.253 320.337L895.843 372.747L843.434 320.337L895.843 267.928Z" stroke="#454545"/>
<path d="M895.844 279.573L936.607 320.336L895.844 361.099L855.081 320.336L895.844 279.573Z" stroke="#454545"/>
<path d="M895.844 291.221L924.96 320.337L895.844 349.454L866.727 320.337L895.844 291.221Z" stroke="#454545"/>
<path d="M895.843 302.867L913.313 320.337L895.843 337.807L878.374 320.337L895.843 302.867Z" stroke="#454545"/>
<path d="M895.843 314.514L901.667 320.337L895.843 326.16L890.02 320.337L895.843 314.514Z" stroke="#454545"/>
<path d="M895.844 384.513L959.9 448.569L895.844 512.625L831.788 448.569L895.844 384.513Z" stroke="#454545"/>
<path d="M895.844 396.159L948.253 448.569L895.844 500.978L843.434 448.569L895.844 396.159Z" stroke="#454545"/>
<path d="M895.844 407.806L936.607 448.569L895.844 489.332L855.081 448.569L895.844 407.806Z" stroke="#454545"/>
<path d="M895.844 419.452L924.96 448.569L895.844 477.685L866.727 448.569L895.844 419.452Z" stroke="#454545"/>
<path d="M895.844 431.099L913.314 448.569L895.844 466.038L878.374 448.569L895.844 431.099Z" stroke="#454545"/>
<path d="M895.843 442.746L901.667 448.569L895.843 454.393L890.02 448.569L895.843 442.746Z" stroke="#454545"/>
<path d="M895.844 512.888L959.9 576.944L895.844 641L831.788 576.944L895.844 512.888Z" stroke="#454545"/>
<path d="M895.843 524.534L948.253 576.944L895.843 629.353L843.434 576.944L895.843 524.534Z" stroke="#454545"/>
<path d="M895.844 536.18L936.607 576.943L895.844 617.706L855.081 576.943L895.844 536.18Z" stroke="#454545"/>
<path d="M895.844 547.827L924.96 576.944L895.844 606.06L866.727 576.944L895.844 547.827Z" stroke="#454545"/>
<path d="M895.843 559.474L913.313 576.944L895.843 594.413L878.374 576.944L895.843 559.474Z" stroke="#454545"/>
<path d="M895.843 571.12L901.667 576.943L895.843 582.767L890.02 576.943L895.843 571.12Z" stroke="#454545"/>
<path d="M1023.96 256.281L1088.01 320.337L1023.96 384.394L959.9 320.337L1023.96 256.281Z" stroke="#454545"/>
<path d="M1023.96 267.928L1076.37 320.337L1023.96 372.747L971.546 320.337L1023.96 267.928Z" stroke="#454545"/>
<path d="M1023.96 279.573L1064.72 320.336L1023.96 361.099L983.193 320.336L1023.96 279.573Z" stroke="#454545"/>
<path d="M1023.96 291.221L1053.07 320.337L1023.96 349.454L994.839 320.337L1023.96 291.221Z" stroke="#454545"/>
<path d="M1023.96 302.867L1041.43 320.337L1023.96 337.807L1006.49 320.337L1023.96 302.867Z" stroke="#454545"/>
<path d="M1023.96 314.514L1029.78 320.337L1023.96 326.16L1018.13 320.337L1023.96 314.514Z" stroke="#454545"/>
<path d="M1023.96 384.513L1088.01 448.569L1023.96 512.625L959.9 448.569L1023.96 384.513Z" stroke="#454545"/>
<path d="M1023.96 396.159L1076.37 448.569L1023.96 500.978L971.546 448.569L1023.96 396.159Z" stroke="#454545"/>
<path d="M1023.96 407.806L1064.72 448.569L1023.96 489.332L983.193 448.569L1023.96 407.806Z" stroke="#454545"/>
<path d="M1023.96 419.452L1053.07 448.569L1023.96 477.685L994.839 448.569L1023.96 419.452Z" stroke="#454545"/>
<path d="M1023.96 431.099L1041.43 448.569L1023.96 466.038L1006.49 448.569L1023.96 431.099Z" stroke="#454545"/>
<path d="M1023.96 442.746L1029.78 448.569L1023.96 454.393L1018.13 448.569L1023.96 442.746Z" stroke="#454545"/>
<path d="M1023.96 512.888L1088.01 576.944L1023.96 641L959.9 576.944L1023.96 512.888Z" stroke="#454545"/>
<path d="M1023.96 524.534L1076.37 576.944L1023.96 629.353L971.546 576.944L1023.96 524.534Z" stroke="#454545"/>
<path d="M1023.96 536.18L1064.72 576.943L1023.96 617.706L983.193 576.943L1023.96 536.18Z" stroke="#454545"/>
<path d="M1023.96 547.827L1053.07 576.944L1023.96 606.06L994.839 576.944L1023.96 547.827Z" stroke="#454545"/>
<path d="M1023.96 559.474L1041.43 576.944L1023.96 594.413L1006.49 576.944L1023.96 559.474Z" stroke="#454545"/>
<path d="M1023.96 571.12L1029.78 576.943L1023.96 582.767L1018.13 576.943L1023.96 571.12Z" stroke="#454545"/>
<path d="M1280.13 256.281L1344.19 320.337L1280.13 384.394L1216.08 320.337L1280.13 256.281Z" stroke="#454545"/>
<path d="M1280.13 267.928L1332.54 320.337L1280.13 372.747L1227.72 320.337L1280.13 267.928Z" stroke="#454545"/>
<path d="M1280.13 279.574L1320.9 320.337L1280.13 361.1L1239.37 320.337L1280.13 279.574Z" stroke="#454545"/>
<path d="M1280.13 291.221L1309.25 320.337L1280.13 349.454L1251.02 320.337L1280.13 291.221Z" stroke="#454545"/>
<path d="M1280.13 302.867L1297.6 320.337L1280.13 337.807L1262.66 320.337L1280.13 302.867Z" stroke="#454545"/>
<path d="M1280.13 314.514L1285.96 320.337L1280.13 326.16L1274.31 320.337L1280.13 314.514Z" stroke="#454545"/>
<path d="M1280.13 384.513L1344.19 448.569L1280.13 512.625L1216.08 448.569L1280.13 384.513Z" stroke="#454545"/>
<path d="M1280.13 396.159L1332.54 448.569L1280.13 500.978L1227.72 448.569L1280.13 396.159Z" stroke="#454545"/>
<path d="M1280.13 407.807L1320.9 448.57L1280.13 489.333L1239.37 448.57L1280.13 407.807Z" stroke="#454545"/>
<path d="M1280.13 419.452L1309.25 448.569L1280.13 477.685L1251.02 448.569L1280.13 419.452Z" stroke="#454545"/>
<path d="M1280.13 431.099L1297.6 448.569L1280.13 466.038L1262.66 448.569L1280.13 431.099Z" stroke="#454545"/>
<path d="M1280.13 442.746L1285.96 448.569L1280.13 454.393L1274.31 448.569L1280.13 442.746Z" stroke="#454545"/>
<path d="M1280.13 512.888L1344.19 576.944L1280.13 641L1216.08 576.944L1280.13 512.888Z" stroke="#454545"/>
<path d="M1280.13 524.534L1332.54 576.944L1280.13 629.353L1227.72 576.944L1280.13 524.534Z" stroke="#454545"/>
<path d="M1280.13 536.181L1320.9 576.944L1280.13 617.707L1239.37 576.944L1280.13 536.181Z" stroke="#454545"/>
<path d="M1280.13 547.827L1309.25 576.944L1280.13 606.06L1251.02 576.944L1280.13 547.827Z" stroke="#454545"/>
<path d="M1280.13 559.474L1297.6 576.944L1280.13 594.413L1262.66 576.944L1280.13 559.474Z" stroke="#454545"/>
<path d="M1280.13 571.12L1285.96 576.943L1280.13 582.767L1274.31 576.943L1280.13 571.12Z" stroke="#454545"/>
<path d="M1408.25 256.281L1472.3 320.337L1408.25 384.394L1344.19 320.337L1408.25 256.281Z" stroke="#454545"/>
<path d="M1408.25 267.928L1460.66 320.337L1408.25 372.747L1355.84 320.337L1408.25 267.928Z" stroke="#454545"/>
<path d="M1408.25 279.574L1449.01 320.337L1408.25 361.1L1367.48 320.337L1408.25 279.574Z" stroke="#454545"/>
<path d="M1408.25 291.221L1437.36 320.337L1408.25 349.454L1379.13 320.337L1408.25 291.221Z" stroke="#454545"/>
<path d="M1408.25 302.867L1425.72 320.337L1408.25 337.807L1390.78 320.337L1408.25 302.867Z" stroke="#454545"/>
<path d="M1408.25 314.514L1414.07 320.337L1408.25 326.16L1402.42 320.337L1408.25 314.514Z" stroke="#454545"/>
<path d="M1408.25 384.513L1472.3 448.569L1408.25 512.625L1344.19 448.569L1408.25 384.513Z" stroke="#454545"/>
<path d="M1408.25 396.159L1460.66 448.569L1408.25 500.978L1355.84 448.569L1408.25 396.159Z" stroke="#454545"/>
<path d="M1408.25 407.807L1449.01 448.57L1408.25 489.333L1367.48 448.57L1408.25 407.807Z" stroke="#454545"/>
<path d="M1408.25 419.452L1437.36 448.569L1408.25 477.685L1379.13 448.569L1408.25 419.452Z" stroke="#454545"/>
<path d="M1408.25 431.099L1425.72 448.569L1408.25 466.038L1390.78 448.569L1408.25 431.099Z" stroke="#454545"/>
<path d="M1408.25 442.746L1414.07 448.569L1408.25 454.393L1402.42 448.569L1408.25 442.746Z" stroke="#454545"/>
<path d="M1408.25 512.888L1472.3 576.944L1408.25 641L1344.19 576.944L1408.25 512.888Z" stroke="#454545"/>
<path d="M1408.25 524.534L1460.66 576.944L1408.25 629.353L1355.84 576.944L1408.25 524.534Z" stroke="#454545"/>
<path d="M1408.25 536.181L1449.01 576.944L1408.25 617.707L1367.48 576.944L1408.25 536.181Z" stroke="#454545"/>
<path d="M1408.25 547.827L1437.36 576.944L1408.25 606.06L1379.13 576.944L1408.25 547.827Z" stroke="#454545"/>
<path d="M1408.25 559.474L1425.72 576.944L1408.25 594.413L1390.78 576.944L1408.25 559.474Z" stroke="#454545"/>
<path d="M1408.25 571.12L1414.07 576.943L1408.25 582.767L1402.42 576.943L1408.25 571.12Z" stroke="#454545"/>
<path d="M1152.07 256.281L1216.12 320.337L1152.07 384.394L1088.01 320.337L1152.07 256.281Z" stroke="#454545"/>
<path d="M1152.07 267.928L1204.48 320.337L1152.07 372.747L1099.66 320.337L1152.07 267.928Z" stroke="#454545"/>
<path d="M1152.07 279.575L1192.83 320.338L1152.07 361.101L1111.31 320.338L1152.07 279.575Z" stroke="#454545"/>
<path d="M1152.07 291.221L1181.19 320.337L1152.07 349.454L1122.95 320.337L1152.07 291.221Z" stroke="#454545"/>
<path d="M1152.07 302.867L1169.54 320.337L1152.07 337.807L1134.6 320.337L1152.07 302.867Z" stroke="#454545"/>
<path d="M1152.07 314.515L1157.89 320.338L1152.07 326.161L1146.25 320.338L1152.07 314.515Z" stroke="#454545"/>
<path d="M1152.07 384.513L1216.12 448.569L1152.07 512.625L1088.01 448.569L1152.07 384.513Z" stroke="#454545"/>
<path d="M1152.07 396.159L1204.48 448.569L1152.07 500.978L1099.66 448.569L1152.07 396.159Z" stroke="#454545"/>
<path d="M1152.07 407.807L1192.83 448.57L1152.07 489.333L1111.31 448.57L1152.07 407.807Z" stroke="#454545"/>
<path d="M1152.07 419.452L1181.19 448.569L1152.07 477.685L1122.95 448.569L1152.07 419.452Z" stroke="#454545"/>
<path d="M1152.07 431.099L1169.54 448.569L1152.07 466.038L1134.6 448.569L1152.07 431.099Z" stroke="#454545"/>
<path d="M1152.07 442.746L1157.89 448.569L1152.07 454.393L1146.25 448.569L1152.07 442.746Z" stroke="#454545"/>
<path d="M1152.07 512.888L1216.12 576.944L1152.07 641L1088.01 576.944L1152.07 512.888Z" stroke="#454545"/>
<path d="M1152.07 524.534L1204.48 576.944L1152.07 629.353L1099.66 576.944L1152.07 524.534Z" stroke="#454545"/>
<path d="M1152.07 536.182L1192.83 576.945L1152.07 617.708L1111.31 576.945L1152.07 536.182Z" stroke="#454545"/>
<path d="M1152.07 547.827L1181.19 576.944L1152.07 606.06L1122.95 576.944L1152.07 547.827Z" stroke="#454545"/>
<path d="M1152.07 559.474L1169.54 576.944L1152.07 594.413L1134.6 576.944L1152.07 559.474Z" stroke="#454545"/>
<path d="M1152.07 571.121L1157.89 576.944L1152.07 582.768L1146.25 576.944L1152.07 571.121Z" stroke="#454545"/>
<path d="M1536.45 256.281L1600.51 320.337L1536.45 384.394L1472.4 320.337L1536.45 256.281Z" stroke="#454545"/>
<path d="M1536.45 267.928L1588.86 320.337L1536.45 372.747L1484.04 320.337L1536.45 267.928Z" stroke="#454545"/>
<path d="M1536.45 279.574L1577.22 320.337L1536.45 361.1L1495.69 320.337L1536.45 279.574Z" stroke="#454545"/>
<path d="M1536.45 291.221L1565.57 320.337L1536.45 349.454L1507.34 320.337L1536.45 291.221Z" stroke="#454545"/>
<path d="M1536.45 302.867L1553.92 320.337L1536.45 337.807L1518.98 320.337L1536.45 302.867Z" stroke="#454545"/>
<path d="M1536.45 314.514L1542.28 320.337L1536.45 326.16L1530.63 320.337L1536.45 314.514Z" stroke="#454545"/>
<path d="M1536.45 384.513L1600.51 448.569L1536.45 512.625L1472.4 448.569L1536.45 384.513Z" stroke="#454545"/>
<path d="M1536.45 396.159L1588.86 448.569L1536.45 500.978L1484.04 448.569L1536.45 396.159Z" stroke="#454545"/>
<path d="M1536.45 407.807L1577.22 448.57L1536.45 489.333L1495.69 448.57L1536.45 407.807Z" stroke="#454545"/>
<path d="M1536.45 419.452L1565.57 448.569L1536.45 477.685L1507.34 448.569L1536.45 419.452Z" stroke="#454545"/>
<path d="M1536.45 431.099L1553.92 448.569L1536.45 466.038L1518.98 448.569L1536.45 431.099Z" stroke="#454545"/>
<path d="M1536.45 442.746L1542.28 448.569L1536.45 454.393L1530.63 448.569L1536.45 442.746Z" stroke="#454545"/>
<path d="M1536.45 512.888L1600.51 576.944L1536.45 641L1472.4 576.944L1536.45 512.888Z" stroke="#454545"/>
<path d="M1536.45 524.534L1588.86 576.944L1536.45 629.353L1484.04 576.944L1536.45 524.534Z" stroke="#454545"/>
<path d="M1536.45 536.181L1577.22 576.944L1536.45 617.707L1495.69 576.944L1536.45 536.181Z" stroke="#454545"/>
<path d="M1536.45 547.827L1565.57 576.944L1536.45 606.06L1507.34 576.944L1536.45 547.827Z" stroke="#454545"/>
<path d="M1536.45 559.474L1553.92 576.944L1536.45 594.413L1518.98 576.944L1536.45 559.474Z" stroke="#454545"/>
<path d="M1536.45 571.12L1542.28 576.943L1536.45 582.767L1530.63 576.943L1536.45 571.12Z" stroke="#454545"/>
<path d="M255.281 0.0576172L319.338 64.1139L255.281 128.17L191.225 64.1139L255.281 0.0576172Z" stroke="#454545"/>
<path d="M255.281 11.7041L307.691 64.1138L255.281 116.523L202.872 64.1138L255.281 11.7041Z" stroke="#454545"/>
<path d="M255.281 23.3506L296.044 64.1136L255.281 104.877L214.518 64.1136L255.281 23.3506Z" stroke="#454545"/>
<path d="M255.282 34.9971L284.398 64.1135L255.282 93.23L226.165 64.1135L255.282 34.9971Z" stroke="#454545"/>
<path d="M255.281 46.6436L272.751 64.1134L255.281 81.5833L237.812 64.1134L255.281 46.6436Z" stroke="#454545"/>
<path d="M255.281 58.291L261.105 64.1143L255.281 69.9376L249.458 64.1143L255.281 58.291Z" stroke="#454545"/>
<path d="M383.394 0.0576172L447.45 64.1139L383.394 128.17L319.337 64.1139L383.394 0.0576172Z" stroke="#454545"/>
<path d="M383.394 11.7041L435.803 64.1138L383.394 116.523L330.984 64.1138L383.394 11.7041Z" stroke="#454545"/>
<path d="M383.393 23.3506L424.156 64.1136L383.393 104.877L342.63 64.1136L383.393 23.3506Z" stroke="#454545"/>
<path d="M383.393 34.9971L412.51 64.1135L383.393 93.23L354.277 64.1135L383.393 34.9971Z" stroke="#454545"/>
<path d="M383.394 46.6436L400.864 64.1134L383.394 81.5833L365.924 64.1134L383.394 46.6436Z" stroke="#454545"/>
<path d="M383.394 58.291L389.217 64.1143L383.394 69.9376L377.57 64.1143L383.394 58.291Z" stroke="#454545"/>
<path d="M767.732 0.0576172L831.788 64.1139L767.732 128.17L703.675 64.1139L767.732 0.0576172Z" stroke="#454545"/>
<path d="M767.731 11.7041L820.141 64.1138L767.731 116.523L715.322 64.1138L767.731 11.7041Z" stroke="#454545"/>
<path d="M767.731 23.3506L808.494 64.1136L767.731 104.877L726.968 64.1136L767.731 23.3506Z" stroke="#454545"/>
<path d="M767.731 34.9971L796.848 64.1135L767.731 93.23L738.615 64.1135L767.731 34.9971Z" stroke="#454545"/>
<path d="M767.732 46.6436L785.201 64.1134L767.732 81.5833L750.262 64.1134L767.732 46.6436Z" stroke="#454545"/>
<path d="M767.731 58.291L773.554 64.1143L767.731 69.9376L761.908 64.1143L767.731 58.291Z" stroke="#454545"/>
<path d="M511.506 0.0576172L575.563 64.1139L511.506 128.17L447.45 64.1139L511.506 0.0576172Z" stroke="#454545"/>
<path d="M511.506 11.7041L563.916 64.1138L511.506 116.523L459.097 64.1138L511.506 11.7041Z" stroke="#454545"/>
<path d="M511.506 23.3506L552.269 64.1136L511.506 104.877L470.743 64.1136L511.506 23.3506Z" stroke="#454545"/>
<path d="M511.506 34.9971L540.623 64.1135L511.506 93.23L482.39 64.1135L511.506 34.9971Z" stroke="#454545"/>
<path d="M511.507 46.6436L528.976 64.1134L511.507 81.5833L494.037 64.1134L511.507 46.6436Z" stroke="#454545"/>
<path d="M511.506 58.291L517.33 64.1143L511.506 69.9376L505.683 64.1143L511.506 58.291Z" stroke="#454545"/>
<path d="M639.619 0.0576172L703.675 64.1139L639.619 128.17L575.562 64.1139L639.619 0.0576172Z" stroke="#454545"/>
<path d="M639.619 11.7041L692.028 64.1138L639.619 116.523L587.209 64.1138L639.619 11.7041Z" stroke="#454545"/>
<path d="M639.619 23.3506L680.382 64.1136L639.619 104.877L598.855 64.1136L639.619 23.3506Z" stroke="#454545"/>
<path d="M639.618 34.9971L668.735 64.1135L639.618 93.23L610.502 64.1135L639.618 34.9971Z" stroke="#454545"/>
<path d="M639.619 46.6436L657.089 64.1134L639.619 81.5833L622.149 64.1134L639.619 46.6436Z" stroke="#454545"/>
<path d="M639.618 58.291L645.442 64.1143L639.618 69.9376L633.795 64.1143L639.618 58.291Z" stroke="#454545"/>
<path d="M895.844 0.0576172L959.9 64.1139L895.844 128.17L831.788 64.1139L895.844 0.0576172Z" stroke="#454545"/>
<path d="M895.844 11.7041L948.253 64.1138L895.844 116.523L843.434 64.1138L895.844 11.7041Z" stroke="#454545"/>
<path d="M895.844 23.3506L936.607 64.1136L895.844 104.877L855.081 64.1136L895.844 23.3506Z" stroke="#454545"/>
<path d="M895.844 34.9971L924.96 64.1135L895.844 93.23L866.727 64.1135L895.844 34.9971Z" stroke="#454545"/>
<path d="M895.844 46.6436L913.314 64.1134L895.844 81.5833L878.374 64.1134L895.844 46.6436Z" stroke="#454545"/>
<path d="M895.843 58.291L901.667 64.1143L895.843 69.9376L890.02 64.1143L895.843 58.291Z" stroke="#454545"/>
<path d="M1280.13 0.0576172L1344.19 64.1139L1280.13 128.17L1216.08 64.1139L1280.13 0.0576172Z" stroke="#454545"/>
<path d="M1280.13 11.7041L1332.54 64.1138L1280.13 116.523L1227.72 64.1138L1280.13 11.7041Z" stroke="#454545"/>
<path d="M1280.13 23.3516L1320.9 64.1146L1280.13 104.878L1239.37 64.1146L1280.13 23.3516Z" stroke="#454545"/>
<path d="M1280.13 34.9971L1309.25 64.1135L1280.13 93.23L1251.02 64.1135L1280.13 34.9971Z" stroke="#454545"/>
<path d="M1280.13 46.6436L1297.6 64.1134L1280.13 81.5833L1262.66 64.1134L1280.13 46.6436Z" stroke="#454545"/>
<path d="M1280.13 58.291L1285.96 64.1143L1280.13 69.9376L1274.31 64.1143L1280.13 58.291Z" stroke="#454545"/>
<path d="M1408.25 0.0576172L1472.3 64.1139L1408.25 128.17L1344.19 64.1139L1408.25 0.0576172Z" stroke="#454545"/>
<path d="M1408.25 11.7041L1460.66 64.1138L1408.25 116.523L1355.84 64.1138L1408.25 11.7041Z" stroke="#454545"/>
<path d="M1408.25 23.3516L1449.01 64.1146L1408.25 104.878L1367.48 64.1146L1408.25 23.3516Z" stroke="#454545"/>
<path d="M1408.25 34.9971L1437.36 64.1135L1408.25 93.23L1379.13 64.1135L1408.25 34.9971Z" stroke="#454545"/>
<path d="M1408.25 46.6436L1425.72 64.1134L1408.25 81.5833L1390.78 64.1134L1408.25 46.6436Z" stroke="#454545"/>
<path d="M1408.25 58.291L1414.07 64.1143L1408.25 69.9376L1402.42 64.1143L1408.25 58.291Z" stroke="#454545"/>
<path d="M1023.96 0.0576172L1088.01 64.1139L1023.96 128.17L959.9 64.1139L1023.96 0.0576172Z" stroke="#454545"/>
<path d="M1023.96 11.7041L1076.37 64.1138L1023.96 116.523L971.546 64.1138L1023.96 11.7041Z" stroke="#454545"/>
<path d="M1023.96 23.3506L1064.72 64.1136L1023.96 104.877L983.193 64.1136L1023.96 23.3506Z" stroke="#454545"/>
<path d="M1023.96 34.9971L1053.07 64.1135L1023.96 93.23L994.839 64.1135L1023.96 34.9971Z" stroke="#454545"/>
<path d="M1023.96 46.6436L1041.43 64.1134L1023.96 81.5833L1006.49 64.1134L1023.96 46.6436Z" stroke="#454545"/>
<path d="M1023.96 58.291L1029.78 64.1143L1023.96 69.9376L1018.13 64.1143L1023.96 58.291Z" stroke="#454545"/>
<path d="M1152.07 0.0576172L1216.12 64.1139L1152.07 128.17L1088.01 64.1139L1152.07 0.0576172Z" stroke="#454545"/>
<path d="M1152.07 11.7041L1204.48 64.1138L1152.07 116.523L1099.66 64.1138L1152.07 11.7041Z" stroke="#454545"/>
<path d="M1152.07 23.3516L1192.83 64.1146L1152.07 104.878L1111.31 64.1146L1152.07 23.3516Z" stroke="#454545"/>
<path d="M1152.07 34.9971L1181.19 64.1135L1152.07 93.23L1122.95 64.1135L1152.07 34.9971Z" stroke="#454545"/>
<path d="M1152.07 46.6436L1169.54 64.1134L1152.07 81.5833L1134.6 64.1134L1152.07 46.6436Z" stroke="#454545"/>
<path d="M1152.07 58.291L1157.89 64.1143L1152.07 69.9376L1146.25 64.1143L1152.07 58.291Z" stroke="#454545"/>
<path d="M1536.45 0.0576172L1600.51 64.1139L1536.45 128.17L1472.4 64.1139L1536.45 0.0576172Z" stroke="#454545"/>
<path d="M1536.45 11.7041L1588.86 64.1138L1536.45 116.523L1484.04 64.1138L1536.45 11.7041Z" stroke="#454545"/>
<path d="M1536.45 23.3516L1577.22 64.1146L1536.45 104.878L1495.69 64.1146L1536.45 23.3516Z" stroke="#454545"/>
<path d="M1536.45 34.9971L1565.57 64.1135L1536.45 93.23L1507.34 64.1135L1536.45 34.9971Z" stroke="#454545"/>
<path d="M1536.45 46.6436L1553.92 64.1134L1536.45 81.5833L1518.98 64.1134L1536.45 46.6436Z" stroke="#454545"/>
<path d="M1536.45 58.291L1542.28 64.1143L1536.45 69.9376L1530.63 64.1143L1536.45 58.291Z" stroke="#454545"/>
<path d="M319.337 64.1123L383.394 128.169L319.337 192.225L255.281 128.169L319.337 64.1123Z" stroke="#454545"/>
<path d="M319.338 75.7588L371.748 128.168L319.338 180.578L266.928 128.168L319.338 75.7588Z" stroke="#454545"/>
<path d="M319.337 87.4062L360.1 128.169L319.337 168.932L278.574 128.169L319.337 87.4062Z" stroke="#454545"/>
<path d="M319.338 99.0518L348.454 128.168L319.338 157.285L290.221 128.168L319.338 99.0518Z" stroke="#454545"/>
<path d="M319.338 110.698L336.808 128.168L319.338 145.638L301.868 128.168L319.338 110.698Z" stroke="#454545"/>
<path d="M319.337 122.346L325.161 128.169L319.337 133.992L313.514 128.169L319.337 122.346Z" stroke="#454545"/>
<path d="M319.338 192.226L383.394 256.282L319.338 320.338L255.282 256.282L319.338 192.226Z" stroke="#454545"/>
<path d="M319.338 203.872L371.748 256.282L319.338 308.691L266.929 256.282L319.338 203.872Z" stroke="#454545"/>
<path d="M319.338 215.52L360.101 256.283L319.338 297.046L278.575 256.283L319.338 215.52Z" stroke="#454545"/>
<path d="M319.338 227.165L348.455 256.282L319.338 285.398L290.222 256.282L319.338 227.165Z" stroke="#454545"/>
<path d="M319.338 238.812L336.808 256.281L319.338 273.751L301.868 256.281L319.338 238.812Z" stroke="#454545"/>
<path d="M319.338 250.459L325.161 256.282L319.338 262.106L313.515 256.282L319.338 250.459Z" stroke="#454545"/>
<path d="M319.338 320.458L383.394 384.514L319.338 448.57L255.282 384.514L319.338 320.458Z" stroke="#454545"/>
<path d="M319.338 332.104L371.748 384.514L319.338 436.924L266.929 384.514L319.338 332.104Z" stroke="#454545"/>
<path d="M319.338 343.752L360.101 384.515L319.338 425.278L278.575 384.515L319.338 343.752Z" stroke="#454545"/>
<path d="M319.338 355.397L348.455 384.514L319.338 413.63L290.222 384.514L319.338 355.397Z" stroke="#454545"/>
<path d="M319.338 367.044L336.808 384.514L319.338 401.984L301.868 384.514L319.338 367.044Z" stroke="#454545"/>
<path d="M319.338 378.691L325.161 384.515L319.338 390.338L313.515 384.515L319.338 378.691Z" stroke="#454545"/>
<path d="M319.338 448.832L383.394 512.888L319.338 576.945L255.282 512.888L319.338 448.832Z" stroke="#454545"/>
<path d="M319.338 460.479L371.748 512.888L319.338 565.298L266.929 512.888L319.338 460.479Z" stroke="#454545"/>
<path d="M319.338 472.126L360.101 512.889L319.338 553.652L278.575 512.889L319.338 472.126Z" stroke="#454545"/>
<path d="M319.338 483.771L348.455 512.888L319.338 542.004L290.222 512.888L319.338 483.771Z" stroke="#454545"/>
<path d="M319.338 495.418L336.808 512.888L319.338 530.358L301.868 512.888L319.338 495.418Z" stroke="#454545"/>
<path d="M319.338 507.065L325.161 512.889L319.338 518.712L313.515 512.889L319.338 507.065Z" stroke="#454545"/>
<path d="M319.338 -64L383.394 0.0562356L319.338 64.1125L255.282 0.0562356L319.338 -64Z" stroke="#454545"/>
<path d="M319.338 -52.3535L371.748 0.0561392L319.338 52.4658L266.929 0.0561392L319.338 -52.3535Z" stroke="#454545"/>
<path d="M319.338 -40.7061L360.101 0.0570076L319.338 40.8201L278.575 0.0570076L319.338 -40.7061Z" stroke="#454545"/>
<path d="M319.338 -29.0605L348.455 0.0559257L319.338 29.1724L290.222 0.0559257L319.338 -29.0605Z" stroke="#454545"/>
<path d="M319.338 -17.4141L336.808 0.055822L319.338 17.5257L301.868 0.055822L319.338 -17.4141Z" stroke="#454545"/>
<path d="M319.338 -5.7666L325.162 0.0566933L319.338 5.87999L313.515 0.0566933L319.338 -5.7666Z" stroke="#454545"/>
<path d="M447.45 64.1123L511.506 128.169L447.45 192.225L383.394 128.169L447.45 64.1123Z" stroke="#454545"/>
<path d="M447.45 75.7588L499.86 128.168L447.45 180.578L395.041 128.168L447.45 75.7588Z" stroke="#454545"/>
<path d="M447.45 87.4062L488.213 128.169L447.45 168.932L406.687 128.169L447.45 87.4062Z" stroke="#454545"/>
<path d="M447.45 99.0518L476.566 128.168L447.45 157.285L418.333 128.168L447.45 99.0518Z" stroke="#454545"/>
<path d="M447.45 110.698L464.92 128.168L447.45 145.638L429.98 128.168L447.45 110.698Z" stroke="#454545"/>
<path d="M447.45 122.346L453.273 128.169L447.45 133.992L441.626 128.169L447.45 122.346Z" stroke="#454545"/>
<path d="M703.675 64.1123L767.731 128.169L703.675 192.225L639.619 128.169L703.675 64.1123Z" stroke="#454545"/>
<path d="M703.675 75.7588L756.085 128.168L703.675 180.578L651.266 128.168L703.675 75.7588Z" stroke="#454545"/>
<path d="M703.675 87.4062L744.438 128.169L703.675 168.932L662.912 128.169L703.675 87.4062Z" stroke="#454545"/>
<path d="M703.675 99.0518L732.792 128.168L703.675 157.285L674.559 128.168L703.675 99.0518Z" stroke="#454545"/>
<path d="M703.675 110.698L721.145 128.168L703.675 145.638L686.205 128.168L703.675 110.698Z" stroke="#454545"/>
<path d="M703.675 122.346L709.498 128.169L703.675 133.992L697.852 128.169L703.675 122.346Z" stroke="#454545"/>
<path d="M447.45 192.226L511.507 256.282L447.45 320.338L383.394 256.282L447.45 192.226Z" stroke="#454545"/>
<path d="M447.451 203.872L499.86 256.282L447.451 308.691L395.041 256.282L447.451 203.872Z" stroke="#454545"/>
<path d="M447.45 215.52L488.213 256.283L447.45 297.046L406.687 256.283L447.45 215.52Z" stroke="#454545"/>
<path d="M447.45 227.165L476.567 256.282L447.45 285.398L418.334 256.282L447.45 227.165Z" stroke="#454545"/>
<path d="M447.45 238.812L464.92 256.281L447.45 273.751L429.98 256.281L447.45 238.812Z" stroke="#454545"/>
<path d="M447.45 250.459L453.274 256.282L447.45 262.106L441.627 256.282L447.45 250.459Z" stroke="#454545"/>
<path d="M447.45 320.458L511.507 384.514L447.45 448.57L383.394 384.514L447.45 320.458Z" stroke="#454545"/>
<path d="M447.451 332.104L499.86 384.514L447.451 436.924L395.041 384.514L447.451 332.104Z" stroke="#454545"/>
<path d="M447.45 343.752L488.213 384.515L447.45 425.278L406.687 384.515L447.45 343.752Z" stroke="#454545"/>
<path d="M447.45 355.397L476.567 384.514L447.45 413.63L418.334 384.514L447.45 355.397Z" stroke="#454545"/>
<path d="M447.45 367.044L464.92 384.514L447.45 401.984L429.98 384.514L447.45 367.044Z" stroke="#454545"/>
<path d="M447.45 378.691L453.274 384.515L447.45 390.338L441.627 384.515L447.45 378.691Z" stroke="#454545"/>
<path d="M447.45 448.832L511.507 512.888L447.45 576.945L383.394 512.888L447.45 448.832Z" stroke="#454545"/>
<path d="M447.451 460.479L499.86 512.888L447.451 565.298L395.041 512.888L447.451 460.479Z" stroke="#454545"/>
<path d="M447.45 472.126L488.213 512.889L447.45 553.652L406.687 512.889L447.45 472.126Z" stroke="#454545"/>
<path d="M447.45 483.771L476.567 512.888L447.45 542.004L418.334 512.888L447.45 483.771Z" stroke="#454545"/>
<path d="M447.45 495.418L464.92 512.888L447.45 530.358L429.98 512.888L447.45 495.418Z" stroke="#454545"/>
<path d="M447.45 507.065L453.274 512.889L447.45 518.712L441.627 512.889L447.45 507.065Z" stroke="#454545"/>
<path d="M703.676 192.226L767.732 256.282L703.676 320.338L639.62 256.282L703.676 192.226Z" stroke="#454545"/>
<path d="M703.676 203.872L756.086 256.282L703.676 308.691L651.267 256.282L703.676 203.872Z" stroke="#454545"/>
<path d="M703.676 215.52L744.439 256.283L703.676 297.046L662.913 256.283L703.676 215.52Z" stroke="#454545"/>
<path d="M703.676 227.165L732.793 256.282L703.676 285.398L674.56 256.282L703.676 227.165Z" stroke="#454545"/>
<path d="M703.676 238.812L721.146 256.281L703.676 273.751L686.206 256.281L703.676 238.812Z" stroke="#454545"/>
<path d="M703.676 250.459L709.499 256.282L703.676 262.106L697.853 256.282L703.676 250.459Z" stroke="#454545"/>
<path d="M703.676 320.458L767.732 384.514L703.676 448.57L639.62 384.514L703.676 320.458Z" stroke="#454545"/>
<path d="M703.676 332.104L756.086 384.514L703.676 436.924L651.267 384.514L703.676 332.104Z" stroke="#454545"/>
<path d="M703.676 343.752L744.439 384.515L703.676 425.278L662.913 384.515L703.676 343.752Z" stroke="#454545"/>
<path d="M703.676 355.397L732.793 384.514L703.676 413.63L674.56 384.514L703.676 355.397Z" stroke="#454545"/>
<path d="M703.676 367.044L721.146 384.514L703.676 401.984L686.206 384.514L703.676 367.044Z" stroke="#454545"/>
<path d="M703.676 378.691L709.499 384.515L703.676 390.338L697.853 384.515L703.676 378.691Z" stroke="#454545"/>
<path d="M703.676 448.832L767.732 512.888L703.676 576.945L639.62 512.888L703.676 448.832Z" stroke="#454545"/>
<path d="M703.676 460.479L756.086 512.888L703.676 565.298L651.267 512.888L703.676 460.479Z" stroke="#454545"/>
<path d="M703.676 472.126L744.439 512.889L703.676 553.652L662.913 512.889L703.676 472.126Z" stroke="#454545"/>
<path d="M703.676 483.771L732.793 512.888L703.676 542.004L674.56 512.888L703.676 483.771Z" stroke="#454545"/>
<path d="M703.676 495.418L721.146 512.888L703.676 530.358L686.206 512.888L703.676 495.418Z" stroke="#454545"/>
<path d="M703.676 507.065L709.499 512.889L703.676 518.712L697.853 512.889L703.676 507.065Z" stroke="#454545"/>
<path d="M447.45 -64L511.507 0.0562356L447.45 64.1125L383.394 0.0562356L447.45 -64Z" stroke="#454545"/>
<path d="M447.45 -52.3535L499.86 0.0561392L447.45 52.4658L395.041 0.0561392L447.45 -52.3535Z" stroke="#454545"/>
<path d="M447.45 -40.7061L488.213 0.0570076L447.45 40.8201L406.687 0.0570076L447.45 -40.7061Z" stroke="#454545"/>
<path d="M447.45 -29.0605L476.567 0.0559257L447.45 29.1724L418.334 0.0559257L447.45 -29.0605Z" stroke="#454545"/>
<path d="M447.45 -17.4141L464.92 0.055822L447.45 17.5257L429.98 0.055822L447.45 -17.4141Z" stroke="#454545"/>
<path d="M447.45 -5.7666L453.274 0.0566933L447.45 5.87999L441.627 0.0566933L447.45 -5.7666Z" stroke="#454545"/>
<path d="M703.676 -64L767.732 0.0562356L703.676 64.1125L639.62 0.0562356L703.676 -64Z" stroke="#454545"/>
<path d="M703.676 -52.3535L756.086 0.0561392L703.676 52.4658L651.267 0.0561392L703.676 -52.3535Z" stroke="#454545"/>
<path d="M703.676 -40.7061L744.439 0.0570076L703.676 40.8201L662.913 0.0570076L703.676 -40.7061Z" stroke="#454545"/>
<path d="M703.676 -29.0605L732.793 0.0559257L703.676 29.1724L674.56 0.0559257L703.676 -29.0605Z" stroke="#454545"/>
<path d="M703.676 -17.4141L721.146 0.055822L703.676 17.5257L686.206 0.055822L703.676 -17.4141Z" stroke="#454545"/>
<path d="M703.676 -5.7666L709.499 0.0566933L703.676 5.87999L697.853 0.0566933L703.676 -5.7666Z" stroke="#454545"/>
<path d="M575.563 64.1123L639.619 128.169L575.563 192.225L511.506 128.169L575.563 64.1123Z" stroke="#454545"/>
<path d="M575.563 75.7588L627.973 128.168L575.563 180.578L523.153 128.168L575.563 75.7588Z" stroke="#454545"/>
<path d="M575.562 87.4062L616.325 128.169L575.562 168.932L534.799 128.169L575.562 87.4062Z" stroke="#454545"/>
<path d="M575.563 99.0518L604.679 128.168L575.563 157.285L546.446 128.168L575.563 99.0518Z" stroke="#454545"/>
<path d="M575.563 110.698L593.033 128.168L575.563 145.638L558.093 128.168L575.563 110.698Z" stroke="#454545"/>
<path d="M575.563 122.346L581.386 128.169L575.563 133.992L569.739 128.169L575.563 122.346Z" stroke="#454545"/>
<path d="M831.787 64.1123L895.843 128.169L831.787 192.225L767.731 128.169L831.787 64.1123Z" stroke="#454545"/>
<path d="M831.788 75.7588L884.197 128.168L831.788 180.578L779.378 128.168L831.788 75.7588Z" stroke="#454545"/>
<path d="M831.787 87.4062L872.55 128.169L831.787 168.932L791.024 128.169L831.787 87.4062Z" stroke="#454545"/>
<path d="M831.787 99.0518L860.904 128.168L831.787 157.285L802.671 128.168L831.787 99.0518Z" stroke="#454545"/>
<path d="M831.787 110.698L849.257 128.168L831.787 145.638L814.317 128.168L831.787 110.698Z" stroke="#454545"/>
<path d="M831.787 122.346L837.61 128.169L831.787 133.992L825.964 128.169L831.787 122.346Z" stroke="#454545"/>
<path d="M959.9 64.1123L1023.96 128.169L959.9 192.225L895.844 128.169L959.9 64.1123Z" stroke="#454545"/>
<path d="M959.9 75.7588L1012.31 128.168L959.9 180.578L907.491 128.168L959.9 75.7588Z" stroke="#454545"/>
<path d="M959.9 87.4062L1000.66 128.169L959.9 168.932L919.137 128.169L959.9 87.4062Z" stroke="#454545"/>
<path d="M959.9 99.0518L989.017 128.168L959.9 157.285L930.784 128.168L959.9 99.0518Z" stroke="#454545"/>
<path d="M959.9 110.698L977.37 128.168L959.9 145.638L942.43 128.168L959.9 110.698Z" stroke="#454545"/>
<path d="M959.9 122.346L965.723 128.169L959.9 133.992L954.077 128.169L959.9 122.346Z" stroke="#454545"/>
<path d="M1088.01 64.1123L1152.07 128.169L1088.01 192.225L1023.96 128.169L1088.01 64.1123Z" stroke="#454545"/>
<path d="M1088.01 75.7588L1140.42 128.168L1088.01 180.578L1035.6 128.168L1088.01 75.7588Z" stroke="#454545"/>
<path d="M1088.01 87.4062L1128.78 128.169L1088.01 168.932L1047.25 128.169L1088.01 87.4062Z" stroke="#454545"/>
<path d="M1088.01 99.0518L1117.13 128.168L1088.01 157.285L1058.9 128.168L1088.01 99.0518Z" stroke="#454545"/>
<path d="M1088.01 110.698L1105.48 128.168L1088.01 145.638L1070.54 128.168L1088.01 110.698Z" stroke="#454545"/>
<path d="M1088.01 122.346L1093.84 128.169L1088.01 133.992L1082.19 128.169L1088.01 122.346Z" stroke="#454545"/>
<path d="M575.563 192.226L639.619 256.282L575.563 320.338L511.506 256.282L575.563 192.226Z" stroke="#454545"/>
<path d="M575.563 203.872L627.973 256.282L575.563 308.691L523.153 256.282L575.563 203.872Z" stroke="#454545"/>
<path d="M575.562 215.52L616.325 256.283L575.562 297.046L534.799 256.283L575.562 215.52Z" stroke="#454545"/>
<path d="M575.563 227.165L604.679 256.282L575.563 285.398L546.446 256.282L575.563 227.165Z" stroke="#454545"/>
<path d="M575.563 238.812L593.033 256.281L575.563 273.751L558.093 256.281L575.563 238.812Z" stroke="#454545"/>
<path d="M575.563 250.459L581.386 256.282L575.563 262.106L569.739 256.282L575.563 250.459Z" stroke="#454545"/>
<path d="M575.563 320.458L639.619 384.514L575.563 448.57L511.506 384.514L575.563 320.458Z" stroke="#454545"/>
<path d="M575.563 332.104L627.973 384.514L575.563 436.924L523.153 384.514L575.563 332.104Z" stroke="#454545"/>
<path d="M575.562 343.752L616.325 384.515L575.562 425.278L534.799 384.515L575.562 343.752Z" stroke="#454545"/>
<path d="M575.563 355.397L604.679 384.514L575.563 413.63L546.446 384.514L575.563 355.397Z" stroke="#454545"/>
<path d="M575.563 367.044L593.033 384.514L575.563 401.984L558.093 384.514L575.563 367.044Z" stroke="#454545"/>
<path d="M575.563 378.691L581.386 384.515L575.563 390.338L569.739 384.515L575.563 378.691Z" stroke="#454545"/>
<path d="M575.563 448.832L639.619 512.888L575.563 576.945L511.506 512.888L575.563 448.832Z" stroke="#454545"/>
<path d="M575.563 460.479L627.973 512.888L575.563 565.298L523.153 512.888L575.563 460.479Z" stroke="#454545"/>
<path d="M575.562 472.126L616.325 512.889L575.562 553.652L534.799 512.889L575.562 472.126Z" stroke="#454545"/>
<path d="M575.563 483.771L604.679 512.888L575.563 542.004L546.446 512.888L575.563 483.771Z" stroke="#454545"/>
<path d="M575.563 495.418L593.033 512.888L575.563 530.358L558.093 512.888L575.563 495.418Z" stroke="#454545"/>
<path d="M575.563 507.065L581.386 512.889L575.563 518.712L569.739 512.889L575.563 507.065Z" stroke="#454545"/>
<path d="M831.787 192.226L895.843 256.282L831.787 320.338L767.731 256.282L831.787 192.226Z" stroke="#454545"/>
<path d="M831.788 203.872L884.197 256.282L831.788 308.691L779.378 256.282L831.788 203.872Z" stroke="#454545"/>
<path d="M831.787 215.52L872.55 256.283L831.787 297.046L791.024 256.283L831.787 215.52Z" stroke="#454545"/>
<path d="M831.787 227.165L860.904 256.282L831.787 285.398L802.671 256.282L831.787 227.165Z" stroke="#454545"/>
<path d="M831.787 238.812L849.257 256.281L831.787 273.751L814.317 256.281L831.787 238.812Z" stroke="#454545"/>
<path d="M831.787 250.459L837.61 256.282L831.787 262.106L825.964 256.282L831.787 250.459Z" stroke="#454545"/>
<path d="M831.787 320.458L895.843 384.514L831.787 448.57L767.731 384.514L831.787 320.458Z" stroke="#454545"/>
<path d="M831.788 332.104L884.197 384.514L831.788 436.924L779.378 384.514L831.788 332.104Z" stroke="#454545"/>
<path d="M831.787 343.752L872.55 384.515L831.787 425.278L791.024 384.515L831.787 343.752Z" stroke="#454545"/>
<path d="M831.787 355.397L860.904 384.514L831.787 413.63L802.671 384.514L831.787 355.397Z" stroke="#454545"/>
<path d="M831.787 367.044L849.257 384.514L831.787 401.984L814.317 384.514L831.787 367.044Z" stroke="#454545"/>
<path d="M831.787 378.691L837.61 384.515L831.787 390.338L825.964 384.515L831.787 378.691Z" stroke="#454545"/>
<path d="M831.787 448.832L895.843 512.888L831.787 576.945L767.731 512.888L831.787 448.832Z" stroke="#454545"/>
<path d="M831.788 460.479L884.197 512.888L831.788 565.298L779.378 512.888L831.788 460.479Z" stroke="#454545"/>
<path d="M831.787 472.126L872.55 512.889L831.787 553.652L791.024 512.889L831.787 472.126Z" stroke="#454545"/>
<path d="M831.787 483.771L860.904 512.888L831.787 542.004L802.671 512.888L831.787 483.771Z" stroke="#454545"/>
<path d="M831.787 495.418L849.257 512.888L831.787 530.358L814.317 512.888L831.787 495.418Z" stroke="#454545"/>
<path d="M831.787 507.065L837.61 512.889L831.787 518.712L825.964 512.889L831.787 507.065Z" stroke="#454545"/>
<path d="M959.9 192.226L1023.96 256.282L959.9 320.338L895.844 256.282L959.9 192.226Z" stroke="#454545"/>
<path d="M959.9 203.872L1012.31 256.282L959.9 308.691L907.491 256.282L959.9 203.872Z" stroke="#454545"/>
<path d="M959.9 215.52L1000.66 256.283L959.9 297.046L919.137 256.283L959.9 215.52Z" stroke="#454545"/>
<path d="M959.9 227.165L989.017 256.282L959.9 285.398L930.784 256.282L959.9 227.165Z" stroke="#454545"/>
<path d="M959.9 238.812L977.37 256.281L959.9 273.751L942.43 256.281L959.9 238.812Z" stroke="#454545"/>
<path d="M959.9 250.459L965.723 256.282L959.9 262.106L954.077 256.282L959.9 250.459Z" stroke="#454545"/>
<path d="M959.9 320.458L1023.96 384.514L959.9 448.57L895.844 384.514L959.9 320.458Z" stroke="#454545"/>
<path d="M959.9 332.104L1012.31 384.514L959.9 436.924L907.491 384.514L959.9 332.104Z" stroke="#454545"/>
<path d="M959.9 343.752L1000.66 384.515L959.9 425.278L919.137 384.515L959.9 343.752Z" stroke="#454545"/>
<path d="M959.9 355.397L989.017 384.514L959.9 413.63L930.784 384.514L959.9 355.397Z" stroke="#454545"/>
<path d="M959.9 367.044L977.37 384.514L959.9 401.984L942.43 384.514L959.9 367.044Z" stroke="#454545"/>
<path d="M959.9 378.691L965.723 384.515L959.9 390.338L954.077 384.515L959.9 378.691Z" stroke="#454545"/>
<path d="M959.9 448.832L1023.96 512.888L959.9 576.945L895.844 512.888L959.9 448.832Z" stroke="#454545"/>
<path d="M959.9 460.479L1012.31 512.888L959.9 565.298L907.491 512.888L959.9 460.479Z" stroke="#454545"/>
<path d="M959.9 472.126L1000.66 512.889L959.9 553.652L919.137 512.889L959.9 472.126Z" stroke="#454545"/>
<path d="M959.9 483.771L989.017 512.888L959.9 542.004L930.784 512.888L959.9 483.771Z" stroke="#454545"/>
<path d="M959.9 495.418L977.37 512.888L959.9 530.358L942.43 512.888L959.9 495.418Z" stroke="#454545"/>
<path d="M959.9 507.065L965.723 512.889L959.9 518.712L954.077 512.889L959.9 507.065Z" stroke="#454545"/>
<path d="M1088.01 192.226L1152.07 256.282L1088.01 320.338L1023.96 256.282L1088.01 192.226Z" stroke="#454545"/>
<path d="M1088.01 203.872L1140.42 256.282L1088.01 308.691L1035.6 256.282L1088.01 203.872Z" stroke="#454545"/>
<path d="M1088.01 215.52L1128.78 256.283L1088.01 297.046L1047.25 256.283L1088.01 215.52Z" stroke="#454545"/>
<path d="M1088.01 227.165L1117.13 256.282L1088.01 285.398L1058.9 256.282L1088.01 227.165Z" stroke="#454545"/>
<path d="M1088.01 238.812L1105.48 256.281L1088.01 273.751L1070.54 256.281L1088.01 238.812Z" stroke="#454545"/>
<path d="M1088.01 250.459L1093.84 256.282L1088.01 262.106L1082.19 256.282L1088.01 250.459Z" stroke="#454545"/>
<path d="M1088.01 320.458L1152.07 384.514L1088.01 448.57L1023.96 384.514L1088.01 320.458Z" stroke="#454545"/>
<path d="M1088.01 332.104L1140.42 384.514L1088.01 436.924L1035.6 384.514L1088.01 332.104Z" stroke="#454545"/>
<path d="M1088.01 343.752L1128.78 384.515L1088.01 425.278L1047.25 384.515L1088.01 343.752Z" stroke="#454545"/>
<path d="M1088.01 355.397L1117.13 384.514L1088.01 413.63L1058.9 384.514L1088.01 355.397Z" stroke="#454545"/>
<path d="M1088.01 367.044L1105.48 384.514L1088.01 401.984L1070.54 384.514L1088.01 367.044Z" stroke="#454545"/>
<path d="M1088.01 378.691L1093.84 384.515L1088.01 390.338L1082.19 384.515L1088.01 378.691Z" stroke="#454545"/>
<path d="M1088.01 448.832L1152.07 512.888L1088.01 576.945L1023.96 512.888L1088.01 448.832Z" stroke="#454545"/>
<path d="M1088.01 460.479L1140.42 512.888L1088.01 565.298L1035.6 512.888L1088.01 460.479Z" stroke="#454545"/>
<path d="M1088.01 472.126L1128.78 512.889L1088.01 553.652L1047.25 512.889L1088.01 472.126Z" stroke="#454545"/>
<path d="M1088.01 483.771L1117.13 512.888L1088.01 542.004L1058.9 512.888L1088.01 483.771Z" stroke="#454545"/>
<path d="M1088.01 495.418L1105.48 512.888L1088.01 530.358L1070.54 512.888L1088.01 495.418Z" stroke="#454545"/>
<path d="M1088.01 507.065L1093.84 512.889L1088.01 518.712L1082.19 512.889L1088.01 507.065Z" stroke="#454545"/>
<path d="M575.563 -64L639.619 0.0562356L575.563 64.1125L511.506 0.0562356L575.563 -64Z" stroke="#454545"/>
<path d="M575.563 -52.3535L627.973 0.0561392L575.563 52.4658L523.153 0.0561392L575.563 -52.3535Z" stroke="#454545"/>
<path d="M575.562 -40.7061L616.325 0.0570076L575.562 40.8201L534.799 0.0570076L575.562 -40.7061Z" stroke="#454545"/>
<path d="M575.563 -29.0605L604.679 0.0559257L575.563 29.1724L546.446 0.0559257L575.563 -29.0605Z" stroke="#454545"/>
<path d="M575.563 -17.4141L593.033 0.055822L575.563 17.5257L558.093 0.055822L575.563 -17.4141Z" stroke="#454545"/>
<path d="M575.563 -5.7666L581.386 0.0566933L575.563 5.87999L569.739 0.0566933L575.563 -5.7666Z" stroke="#454545"/>
<path d="M1216.13 -64L1280.18 0.0562356L1216.13 64.1125L1152.07 0.0562356L1216.13 -64Z" stroke="#454545"/>
<path d="M1216.13 -52.3535L1268.54 0.0561392L1216.13 52.4658L1163.72 0.0561392L1216.13 -52.3535Z" stroke="#454545"/>
<path d="M1216.12 -40.7061L1256.89 0.0570076L1216.12 40.8201L1175.36 0.0570076L1216.12 -40.7061Z" stroke="#454545"/>
<path d="M1216.13 -29.0605L1245.24 0.0559257L1216.13 29.1724L1187.01 0.0559257L1216.13 -29.0605Z" stroke="#454545"/>
<path d="M1216.13 -17.4141L1233.6 0.055822L1216.13 17.5257L1198.66 0.055822L1216.13 -17.4141Z" stroke="#454545"/>
<path d="M1216.13 -5.7666L1221.95 0.0566933L1216.13 5.87999L1210.3 0.0566933L1216.13 -5.7666Z" stroke="#454545"/>
<path d="M1216.13 64.041L1280.18 128.097L1216.13 192.153L1152.07 128.097L1216.13 64.041Z" stroke="#454545"/>
<path d="M1216.13 75.6875L1268.54 128.097L1216.13 180.507L1163.72 128.097L1216.13 75.6875Z" stroke="#454545"/>
<path d="M1216.12 87.335L1256.89 128.098L1216.12 168.861L1175.36 128.098L1216.12 87.335Z" stroke="#454545"/>
<path d="M1216.13 98.9805L1245.24 128.097L1216.13 157.213L1187.01 128.097L1216.13 98.9805Z" stroke="#454545"/>
<path d="M1216.13 110.627L1233.6 128.097L1216.13 145.567L1198.66 128.097L1216.13 110.627Z" stroke="#454545"/>
<path d="M1216.13 122.274L1221.95 128.098L1216.13 133.921L1210.3 128.098L1216.13 122.274Z" stroke="#454545"/>
<path d="M1216.13 192.25L1280.18 256.306L1216.13 320.362L1152.07 256.306L1216.13 192.25Z" stroke="#454545"/>
<path d="M1216.13 203.896L1268.54 256.306L1216.13 308.716L1163.72 256.306L1216.13 203.896Z" stroke="#454545"/>
<path d="M1216.12 215.544L1256.89 256.307L1216.12 297.07L1175.36 256.307L1216.12 215.544Z" stroke="#454545"/>
<path d="M1216.13 227.189L1245.24 256.306L1216.13 285.422L1187.01 256.306L1216.13 227.189Z" stroke="#454545"/>
<path d="M1216.13 238.836L1233.6 256.306L1216.13 273.776L1198.66 256.306L1216.13 238.836Z" stroke="#454545"/>
<path d="M1216.13 250.483L1221.95 256.307L1216.13 262.13L1210.3 256.307L1216.13 250.483Z" stroke="#454545"/>
<path d="M1216.13 320.482L1280.18 384.539L1216.13 448.595L1152.07 384.539L1216.13 320.482Z" stroke="#454545"/>
<path d="M1216.13 332.129L1268.54 384.539L1216.13 436.948L1163.72 384.539L1216.13 332.129Z" stroke="#454545"/>
<path d="M1216.12 343.776L1256.89 384.539L1216.12 425.302L1175.36 384.539L1216.12 343.776Z" stroke="#454545"/>
<path d="M1216.13 355.422L1245.24 384.538L1216.13 413.655L1187.01 384.538L1216.13 355.422Z" stroke="#454545"/>
<path d="M1216.13 367.068L1233.6 384.538L1216.13 402.008L1198.66 384.538L1216.13 367.068Z" stroke="#454545"/>
<path d="M1216.13 378.716L1221.95 384.539L1216.13 390.362L1210.3 384.539L1216.13 378.716Z" stroke="#454545"/>
<path d="M1216.13 448.856L1280.18 512.913L1216.13 576.969L1152.07 512.913L1216.13 448.856Z" stroke="#454545"/>
<path d="M1216.13 460.503L1268.54 512.913L1216.13 565.322L1163.72 512.913L1216.13 460.503Z" stroke="#454545"/>
<path d="M1216.12 472.15L1256.89 512.913L1216.12 553.677L1175.36 512.913L1216.12 472.15Z" stroke="#454545"/>
<path d="M1216.13 483.796L1245.24 512.912L1216.13 542.029L1187.01 512.912L1216.13 483.796Z" stroke="#454545"/>
<path d="M1216.13 495.442L1233.6 512.912L1216.13 530.382L1198.66 512.912L1216.13 495.442Z" stroke="#454545"/>
<path d="M1216.13 507.09L1221.95 512.913L1216.13 518.736L1210.3 512.913L1216.13 507.09Z" stroke="#454545"/>
<path d="M1344.24 -64L1408.29 0.0562356L1344.24 64.1125L1280.18 0.0562356L1344.24 -64Z" stroke="#454545"/>
<path d="M1344.24 -52.3535L1396.65 0.0561392L1344.24 52.4658L1291.83 0.0561392L1344.24 -52.3535Z" stroke="#454545"/>
<path d="M1344.24 -40.7061L1385 0.0570076L1344.24 40.8201L1303.47 0.0570076L1344.24 -40.7061Z" stroke="#454545"/>
<path d="M1344.24 -29.0605L1373.35 0.0559257L1344.24 29.1724L1315.12 0.0559257L1344.24 -29.0605Z" stroke="#454545"/>
<path d="M1344.24 -17.4141L1361.71 0.055822L1344.24 17.5257L1326.77 0.055822L1344.24 -17.4141Z" stroke="#454545"/>
<path d="M1344.24 -5.7666L1350.06 0.0566933L1344.24 5.87999L1338.41 0.0566933L1344.24 -5.7666Z" stroke="#454545"/>
<path d="M1344.24 64.041L1408.29 128.097L1344.24 192.153L1280.18 128.097L1344.24 64.041Z" stroke="#454545"/>
<path d="M1344.24 75.6875L1396.65 128.097L1344.24 180.507L1291.83 128.097L1344.24 75.6875Z" stroke="#454545"/>
<path d="M1344.24 87.335L1385 128.098L1344.24 168.861L1303.47 128.098L1344.24 87.335Z" stroke="#454545"/>
<path d="M1344.24 98.9805L1373.35 128.097L1344.24 157.213L1315.12 128.097L1344.24 98.9805Z" stroke="#454545"/>
<path d="M1344.24 110.627L1361.71 128.097L1344.24 145.567L1326.77 128.097L1344.24 110.627Z" stroke="#454545"/>
<path d="M1344.24 122.274L1350.06 128.098L1344.24 133.921L1338.41 128.098L1344.24 122.274Z" stroke="#454545"/>
<path d="M1344.24 192.25L1408.29 256.306L1344.24 320.362L1280.18 256.306L1344.24 192.25Z" stroke="#454545"/>
<path d="M1344.24 203.896L1396.65 256.306L1344.24 308.716L1291.83 256.306L1344.24 203.896Z" stroke="#454545"/>
<path d="M1344.24 215.544L1385 256.307L1344.24 297.07L1303.47 256.307L1344.24 215.544Z" stroke="#454545"/>
<path d="M1344.24 227.189L1373.35 256.306L1344.24 285.422L1315.12 256.306L1344.24 227.189Z" stroke="#454545"/>
<path d="M1344.24 238.836L1361.71 256.306L1344.24 273.776L1326.77 256.306L1344.24 238.836Z" stroke="#454545"/>
<path d="M1344.24 250.483L1350.06 256.307L1344.24 262.13L1338.41 256.307L1344.24 250.483Z" stroke="#454545"/>
<path d="M1344.24 320.482L1408.29 384.539L1344.24 448.595L1280.18 384.539L1344.24 320.482Z" stroke="#454545"/>
<path d="M1344.24 332.129L1396.65 384.539L1344.24 436.948L1291.83 384.539L1344.24 332.129Z" stroke="#454545"/>
<path d="M1344.24 343.776L1385 384.539L1344.24 425.302L1303.47 384.539L1344.24 343.776Z" stroke="#454545"/>
<path d="M1344.24 355.422L1373.35 384.538L1344.24 413.655L1315.12 384.538L1344.24 355.422Z" stroke="#454545"/>
<path d="M1344.24 367.068L1361.71 384.538L1344.24 402.008L1326.77 384.538L1344.24 367.068Z" stroke="#454545"/>
<path d="M1344.24 378.716L1350.06 384.539L1344.24 390.362L1338.41 384.539L1344.24 378.716Z" stroke="#454545"/>
<path d="M1344.24 448.856L1408.29 512.913L1344.24 576.969L1280.18 512.913L1344.24 448.856Z" stroke="#454545"/>
<path d="M1344.24 460.503L1396.65 512.913L1344.24 565.322L1291.83 512.913L1344.24 460.503Z" stroke="#454545"/>
<path d="M1344.24 472.15L1385 512.913L1344.24 553.677L1303.47 512.913L1344.24 472.15Z" stroke="#454545"/>
<path d="M1344.24 483.796L1373.35 512.912L1344.24 542.029L1315.12 512.912L1344.24 483.796Z" stroke="#454545"/>
<path d="M1344.24 495.442L1361.71 512.912L1344.24 530.382L1326.77 512.912L1344.24 495.442Z" stroke="#454545"/>
<path d="M1344.24 507.09L1350.06 512.913L1344.24 518.736L1338.41 512.913L1344.24 507.09Z" stroke="#454545"/>
<path d="M831.787 -64L895.843 0.0562356L831.787 64.1125L767.731 0.0562356L831.787 -64Z" stroke="#454545"/>
<path d="M831.788 -52.3535L884.197 0.0561392L831.788 52.4658L779.378 0.0561392L831.788 -52.3535Z" stroke="#454545"/>
<path d="M831.787 -40.7061L872.55 0.0570076L831.787 40.8201L791.024 0.0570076L831.787 -40.7061Z" stroke="#454545"/>
<path d="M831.787 -29.0605L860.904 0.0559257L831.787 29.1724L802.671 0.0559257L831.787 -29.0605Z" stroke="#454545"/>
<path d="M831.787 -17.4141L849.257 0.055822L831.787 17.5257L814.317 0.055822L831.787 -17.4141Z" stroke="#454545"/>
<path d="M831.787 -5.7666L837.61 0.0566933L831.787 5.87999L825.964 0.0566933L831.787 -5.7666Z" stroke="#454545"/>
<path d="M959.9 -64L1023.96 0.0562356L959.9 64.1125L895.844 0.0562356L959.9 -64Z" stroke="#454545"/>
<path d="M959.9 -52.3535L1012.31 0.0561392L959.9 52.4658L907.491 0.0561392L959.9 -52.3535Z" stroke="#454545"/>
<path d="M959.9 -40.7061L1000.66 0.0570076L959.9 40.8201L919.137 0.0570076L959.9 -40.7061Z" stroke="#454545"/>
<path d="M959.9 -29.0605L989.017 0.0559257L959.9 29.1724L930.784 0.0559257L959.9 -29.0605Z" stroke="#454545"/>
<path d="M959.9 -17.4141L977.37 0.055822L959.9 17.5257L942.43 0.055822L959.9 -17.4141Z" stroke="#454545"/>
<path d="M959.9 -5.7666L965.724 0.0566933L959.9 5.87999L954.077 0.0566933L959.9 -5.7666Z" stroke="#454545"/>
<path d="M1088.01 -64L1152.07 0.0562356L1088.01 64.1125L1023.96 0.0562356L1088.01 -64Z" stroke="#454545"/>
<path d="M1088.01 -52.3535L1140.42 0.0561392L1088.01 52.4658L1035.6 0.0561392L1088.01 -52.3535Z" stroke="#454545"/>
<path d="M1088.01 -40.7061L1128.78 0.0570076L1088.01 40.8201L1047.25 0.0570076L1088.01 -40.7061Z" stroke="#454545"/>
<path d="M1088.01 -29.0605L1117.13 0.0559257L1088.01 29.1724L1058.9 0.0559257L1088.01 -29.0605Z" stroke="#454545"/>
<path d="M1088.01 -17.4141L1105.48 0.055822L1088.01 17.5257L1070.54 0.055822L1088.01 -17.4141Z" stroke="#454545"/>
<path d="M1088.01 -5.7666L1093.84 0.0566933L1088.01 5.87999L1082.19 0.0566933L1088.01 -5.7666Z" stroke="#454545"/>
<path d="M1472.45 -64L1536.5 0.0562356L1472.45 64.1125L1408.39 0.0562356L1472.45 -64Z" stroke="#454545"/>
<path d="M1472.45 -52.3535L1524.86 0.0561392L1472.45 52.4658L1420.04 0.0561392L1472.45 -52.3535Z" stroke="#454545"/>
<path d="M1472.45 -40.7061L1513.21 0.0570076L1472.45 40.8201L1431.68 0.0570076L1472.45 -40.7061Z" stroke="#454545"/>
<path d="M1472.45 -29.0605L1501.56 0.0559257L1472.45 29.1724L1443.33 0.0559257L1472.45 -29.0605Z" stroke="#454545"/>
<path d="M1472.45 -17.4141L1489.92 0.055822L1472.45 17.5257L1454.98 0.055822L1472.45 -17.4141Z" stroke="#454545"/>
<path d="M1472.45 -5.7666L1478.27 0.0566933L1472.45 5.87999L1466.62 0.0566933L1472.45 -5.7666Z" stroke="#454545"/>
<path d="M1472.45 64.041L1536.5 128.097L1472.45 192.153L1408.39 128.097L1472.45 64.041Z" stroke="#454545"/>
<path d="M1472.45 75.6875L1524.86 128.097L1472.45 180.507L1420.04 128.097L1472.45 75.6875Z" stroke="#454545"/>
<path d="M1472.45 87.335L1513.21 128.098L1472.45 168.861L1431.68 128.098L1472.45 87.335Z" stroke="#454545"/>
<path d="M1472.45 98.9805L1501.56 128.097L1472.45 157.213L1443.33 128.097L1472.45 98.9805Z" stroke="#454545"/>
<path d="M1472.45 110.627L1489.92 128.097L1472.45 145.567L1454.98 128.097L1472.45 110.627Z" stroke="#454545"/>
<path d="M1472.45 122.274L1478.27 128.098L1472.45 133.921L1466.62 128.098L1472.45 122.274Z" stroke="#454545"/>
<path d="M1472.45 192.25L1536.5 256.306L1472.45 320.362L1408.39 256.306L1472.45 192.25Z" stroke="#454545"/>
<path d="M1472.45 203.896L1524.86 256.306L1472.45 308.716L1420.04 256.306L1472.45 203.896Z" stroke="#454545"/>
<path d="M1472.45 215.544L1513.21 256.307L1472.45 297.07L1431.68 256.307L1472.45 215.544Z" stroke="#454545"/>
<path d="M1472.45 227.189L1501.56 256.306L1472.45 285.422L1443.33 256.306L1472.45 227.189Z" stroke="#454545"/>
<path d="M1472.45 238.836L1489.92 256.306L1472.45 273.776L1454.98 256.306L1472.45 238.836Z" stroke="#454545"/>
<path d="M1472.45 250.483L1478.27 256.307L1472.45 262.13L1466.62 256.307L1472.45 250.483Z" stroke="#454545"/>
<path d="M1472.45 320.482L1536.5 384.539L1472.45 448.595L1408.39 384.539L1472.45 320.482Z" stroke="#454545"/>
<path d="M1472.45 332.129L1524.86 384.539L1472.45 436.948L1420.04 384.539L1472.45 332.129Z" stroke="#454545"/>
<path d="M1472.45 343.776L1513.21 384.539L1472.45 425.302L1431.68 384.539L1472.45 343.776Z" stroke="#454545"/>
<path d="M1472.45 355.422L1501.56 384.538L1472.45 413.655L1443.33 384.538L1472.45 355.422Z" stroke="#454545"/>
<path d="M1472.45 367.068L1489.92 384.538L1472.45 402.008L1454.98 384.538L1472.45 367.068Z" stroke="#454545"/>
<path d="M1472.45 378.716L1478.27 384.539L1472.45 390.362L1466.62 384.539L1472.45 378.716Z" stroke="#454545"/>
<path d="M1472.45 448.856L1536.5 512.913L1472.45 576.969L1408.39 512.913L1472.45 448.856Z" stroke="#454545"/>
<path d="M1472.45 460.503L1524.86 512.913L1472.45 565.322L1420.04 512.913L1472.45 460.503Z" stroke="#454545"/>
<path d="M1472.45 472.15L1513.21 512.913L1472.45 553.677L1431.68 512.913L1472.45 472.15Z" stroke="#454545"/>
<path d="M1472.45 483.796L1501.56 512.912L1472.45 542.029L1443.33 512.912L1472.45 483.796Z" stroke="#454545"/>
<path d="M1472.45 495.442L1489.92 512.912L1472.45 530.382L1454.98 512.912L1472.45 495.442Z" stroke="#454545"/>
<path d="M1472.45 507.09L1478.27 512.913L1472.45 518.736L1466.62 512.913L1472.45 507.09Z" stroke="#454545"/>
</g>
<defs>
<clipPath id="clip0_302_13769">
<rect width="1536" height="577" fill="white"/>
</clipPath>
</defs>
</svg>
