<svg xmlns="http://www.w3.org/2000/svg" width="1920" height="248"><path d="M1920 9V0H113c148.2 14.41 292.72 47.41 440.99 63.01C705.64 83.11 857.45 102.48 1013 107c263.81 2.28 528.51-.43 777.33-60.67C1835.05 38.6 1873.97 11.34 1920 9Z" stroke="none" fill="none" fill-opacity="0" stroke-opacity="0" stroke-width=".3"/><path d="M0 68c202.28 2.91 401.44 18.61 593 64-61.43-6.63-125.14-16.64-188.07-21.93C271.32 99.6 132.05 97.77 0 115v2c193.91-21.79 397.01-12.44 586 19 11.19 2.53 23.51 3.21 34 7 13.88 1.77 27.17 5.94 41 8 12.99 1.48 27.5 9.98 40 5-1.25-1.04-2.43-2.23-3-4-38.02-5.44-74.09-18.06-111.67-25.33-36.95-9.76-76.38-14.76-112.33-25.67-8.02-2.74-17.81-1.85-25-6-81.26-16.22-163.6-28.31-246-40-2.51 2.72-9.98 3.7-11-1C129.59 46.6 67.49 38.04 4 35H0v33Z" fill="none" fill-opacity="0" stroke="#AF247A" stroke-opacity=".98" stroke-width=".3"/><path d="M1900 53c-135.36 57.74-285.1 72.1-433 86-165.43 12.78-335.21 15.43-503 10 .04 0 0 1 0 1 170.86 11.99 351.68 14.51 526 7 149.4-8.16 288.59-22.65 430-60V46c-7.54-.38-12.86 6.24-20 7Z" fill="none" fill-opacity="0" stroke="#AF247A" stroke-opacity=".97" stroke-width=".3"/><path d="M203 55c-3.92.66-7.27-1.01-11-1 1.02 4.7 8.49 3.72 11 1Z" fill="none" fill-opacity="0" stroke="#AF247A" stroke-opacity=".8" stroke-width=".3"/><path d="M0 115c132.05-17.23 271.32-15.4 404.93-4.93 62.93 5.29 126.64 15.3 188.07 21.93C401.44 86.61 202.28 70.91 0 68v47Z" fill="none" fill-opacity="0" stroke="#473B77" stroke-width=".3"/><path d="M474 101c142.76 15.25 283.66 37.98 428 47 20.29.43 42.97 6.45 62 2 0 0 .04-1 0-1-174.17-8.05-343.34-36.02-515-54 7.19 4.15 16.98 3.26 25 6Z" fill="none" fill-opacity="0" stroke="#473B77" stroke-opacity=".85" stroke-width=".3"/><path d="M964 150c-19.03 4.45-41.71-1.57-62-2-144.34-9.02-285.24-31.75-428-47 35.95 10.91 75.38 15.91 112.33 25.67 37.58 7.27 73.65 19.89 111.67 25.33 396.88 64.69 815.96 70.4 1222 32V97c-141.41 37.35-280.6 51.84-430 60-174.32 7.51-355.14 4.99-526-7Z" fill="none" fill-opacity="0" stroke="#473B77" stroke-width=".3"/><path d="M701 156c393.72 64.59 815.56 68.25 1219 32v-4c-406.04 38.4-825.12 32.69-1222-32 .57 1.77 1.75 2.96 3 4Z" fill="none" fill-opacity="0" stroke="#473B77" stroke-opacity=".79" stroke-width=".3"/><path d="M0 190v58h1156c-152.97-8.51-305.29-23.85-454.98-47.02-152.02-27.66-310.47-34.93-469.8-29.76C153.19 173.34 77.32 184.83 0 190ZM1694 248h226v-17c-74.4 9.16-150.99 11.64-226 17Z" stroke="none" fill="none" fill-opacity="0" stroke-opacity="0" stroke-width=".3"/><path d="M0 21c24.03-3.06 52.38 2.77 79 4 158.06 13.83 310.8 48.69 468 66 244.97 36.75 498.21 54.12 753 42 187.24-7.69 373.66-20.23 549.02-73.98 23.26-6.65 45.48-21.54 70.98-17.02V9c-46.03 2.34-84.95 29.6-129.67 37.33-248.82 60.24-513.52 62.95-777.33 60.67-155.55-4.52-307.36-23.89-459.01-43.99C405.72 47.41 261.2 14.41 113 0H0v21Z" fill="#F7F9FD" fill-opacity=".04" stroke="None"/><path d="M1920 9V0H113c148.2 14.41 292.72 47.41 440.99 63.01C705.64 83.11 857.45 102.48 1013 107c263.81 2.28 528.51-.43 777.33-60.67C1835.05 38.6 1873.97 11.34 1920 9Z" fill="none" fill-opacity="0" stroke="None"/><path d="M0 21v14h4c40.82-10.24 84.49 4.31 126 6 165.19 17 325.16 54.59 490.01 72.99C964.5 157.52 1331.67 159.67 1675 110c76.89-12.09 151.79-32.02 225-57 7.14-.76 12.46-7.38 20-7v-4c-25.5-4.52-47.72 10.37-70.98 17.02-175.36 53.75-361.78 66.29-549.02 73.98-254.79 12.12-508.03-5.25-753-42C389.8 73.69 237.06 38.83 79 25c-26.62-1.23-54.97-7.06-79-4Z" fill="#F7F9FD" fill-opacity=".14" stroke="None"/><path d="M4 35c63.49 3.04 125.59 11.6 188 19 3.73-.01 7.08 1.66 11 1 82.4 11.69 164.74 23.78 246 40 171.66 17.98 340.83 45.95 515 54 167.79 5.43 337.57 2.78 503-10 147.9-13.9 297.64-28.26 433-86-73.21 24.98-148.11 44.91-225 57-343.33 49.67-710.5 47.52-1054.99 3.99C455.16 95.59 295.19 58 130 41 88.49 39.31 44.82 24.76 4 35Z" fill="#F7F9FD" fill-opacity=".22" stroke="None"/><path d="M0 68c202.28 2.91 401.44 18.61 593 64-61.43-6.63-125.14-16.64-188.07-21.93C271.32 99.6 132.05 97.77 0 115v2c193.91-21.79 397.01-12.44 586 19 11.19 2.53 23.51 3.21 34 7 13.88 1.77 27.17 5.94 41 8 12.99 1.48 27.5 9.98 40 5-1.25-1.04-2.43-2.23-3-4-38.02-5.44-74.09-18.06-111.67-25.33-36.95-9.76-76.38-14.76-112.33-25.67-8.02-2.74-17.81-1.85-25-6-81.26-16.22-163.6-28.31-246-40-2.51 2.72-9.98 3.7-11-1C129.59 46.6 67.49 38.04 4 35H0v33Z" fill="#AF247A" fill-opacity=".98" stroke="None"/><path d="M1900 53c-135.36 57.74-285.1 72.1-433 86-165.43 12.78-335.21 15.43-503 10 .04 0 0 1 0 1 170.86 11.99 351.68 14.51 526 7 149.4-8.16 288.59-22.65 430-60V46c-7.54-.38-12.86 6.24-20 7Z" fill="#AF247A" fill-opacity=".97" stroke="None"/><path d="M203 55c-3.92.66-7.27-1.01-11-1 1.02 4.7 8.49 3.72 11 1Z" fill="#AF247A" fill-opacity=".8" stroke="None"/><path d="M0 115c132.05-17.23 271.32-15.4 404.93-4.93 62.93 5.29 126.64 15.3 188.07 21.93C401.44 86.61 202.28 70.91 0 68v47Z" fill="#473B77" stroke="None"/><path d="M474 101c142.76 15.25 283.66 37.98 428 47 20.29.43 42.97 6.45 62 2 0 0 .04-1 0-1-174.17-8.05-343.34-36.02-515-54 7.19 4.15 16.98 3.26 25 6Z" fill="#473B77" fill-opacity=".85" stroke="None"/><path d="M964 150c-19.03 4.45-41.71-1.57-62-2-144.34-9.02-285.24-31.75-428-47 35.95 10.91 75.38 15.91 112.33 25.67 37.58 7.27 73.65 19.89 111.67 25.33 396.88 64.69 815.96 70.4 1222 32V97c-141.41 37.35-280.6 51.84-430 60-174.32 7.51-355.14 4.99-526-7Z" fill="#473B77" stroke="None"/><path d="M701 156c393.72 64.59 815.56 68.25 1219 32v-4c-406.04 38.4-825.12 32.69-1222-32 .57 1.77 1.75 2.96 3 4Z" fill="#473B77" fill-opacity=".79" stroke="None"/><path d="M0 190v58h1156c-152.97-8.51-305.29-23.85-454.98-47.02-152.02-27.66-310.47-34.93-469.8-29.76C153.19 173.34 77.32 184.83 0 190ZM1694 248h226v-17c-74.4 9.16-150.99 11.64-226 17Z" fill="none" fill-opacity="0" stroke="None"/></svg>
